<mxfile host="app.diagrams.net" agent="Mozilla/5.0 (Windows NT 10.0; Win64; x64) AppleWebKit/537.36 (KHTML, like Gecko) Chrome/131.0.0.0 Safari/537.36" version="25.0.0">
  <diagram name="Page-1" id="ahkbX__HbzmorD61LLsi">
    <mxGraphModel dx="3434" dy="2292" grid="1" gridSize="10" guides="1" tooltips="1" connect="1" arrows="1" fold="1" page="1" pageScale="1" pageWidth="850" pageHeight="1100" math="0" shadow="0">
      <root>
        <mxCell id="0" />
        <mxCell id="1" parent="0" />
        <mxCell id="EhfS3hLfAL1PqbgcSTiK-24" value="" style="endArrow=none;html=1;rounded=0;entryX=0;entryY=0.5;entryDx=0;entryDy=0;exitX=1;exitY=0.5;exitDx=0;exitDy=0;" parent="1" edge="1">
          <mxGeometry width="50" height="50" relative="1" as="geometry">
            <mxPoint x="779.0000000000005" y="-156.33000000000015" as="sourcePoint" />
            <mxPoint x="-409.1600000000001" y="1" as="targetPoint" />
            <Array as="points">
              <mxPoint x="797" y="-156" />
              <mxPoint x="797" y="-240" />
              <mxPoint x="677" y="-240" />
              <mxPoint x="597" y="-240" />
              <mxPoint x="-3" y="-240" />
              <mxPoint x="-453" y="-240" />
              <mxPoint x="-453" y="1" />
            </Array>
          </mxGeometry>
        </mxCell>
        <mxCell id="EhfS3hLfAL1PqbgcSTiK-26" value="&lt;b&gt;4&lt;/b&gt;" style="text;html=1;align=center;verticalAlign=middle;whiteSpace=wrap;rounded=0;" parent="1" vertex="1">
          <mxGeometry x="-239" y="-155" width="60" height="30" as="geometry" />
        </mxCell>
        <mxCell id="EhfS3hLfAL1PqbgcSTiK-62" value="" style="group" parent="1" vertex="1" connectable="0">
          <mxGeometry x="-406.1600000000001" y="-172" width="426.1600000000001" height="286" as="geometry" />
        </mxCell>
        <mxCell id="fspLrODclx2UsOWjgFe7-22" value="Program Counter" style="rounded=0;whiteSpace=wrap;html=1;fontStyle=1" parent="EhfS3hLfAL1PqbgcSTiK-62" vertex="1">
          <mxGeometry y="143" width="120" height="60" as="geometry" />
        </mxCell>
        <mxCell id="EhfS3hLfAL1PqbgcSTiK-16" value="" style="group" parent="EhfS3hLfAL1PqbgcSTiK-62" vertex="1" connectable="0">
          <mxGeometry x="108.16000000000008" y="142" width="229" height="144" as="geometry" />
        </mxCell>
        <mxCell id="fspLrODclx2UsOWjgFe7-21" value="Instruction Memory" style="rounded=0;whiteSpace=wrap;html=1;fontStyle=1" parent="EhfS3hLfAL1PqbgcSTiK-16" vertex="1">
          <mxGeometry x="61" y="14" width="120" height="130" as="geometry" />
        </mxCell>
        <mxCell id="EhfS3hLfAL1PqbgcSTiK-4" value="" style="group" parent="EhfS3hLfAL1PqbgcSTiK-16" vertex="1" connectable="0">
          <mxGeometry x="181" y="24" width="48" height="20" as="geometry" />
        </mxCell>
        <mxCell id="fspLrODclx2UsOWjgFe7-24" value="" style="html=1;shadow=0;dashed=0;align=center;verticalAlign=middle;shape=mxgraph.arrows2.arrow;dy=0.67;dx=20;notch=0;movable=1;resizable=1;rotatable=1;deletable=1;editable=1;locked=0;connectable=1;fontStyle=1" parent="EhfS3hLfAL1PqbgcSTiK-4" vertex="1">
          <mxGeometry y="4" width="48" height="10" as="geometry" />
        </mxCell>
        <mxCell id="EhfS3hLfAL1PqbgcSTiK-1" value="" style="endArrow=none;html=1;rounded=0;" parent="EhfS3hLfAL1PqbgcSTiK-4" edge="1">
          <mxGeometry width="50" height="50" relative="1" as="geometry">
            <mxPoint x="8" y="20" as="sourcePoint" />
            <mxPoint x="18" as="targetPoint" />
          </mxGeometry>
        </mxCell>
        <mxCell id="EhfS3hLfAL1PqbgcSTiK-5" value="" style="group" parent="EhfS3hLfAL1PqbgcSTiK-16" vertex="1" connectable="0">
          <mxGeometry x="12" y="22" width="48" height="20" as="geometry" />
        </mxCell>
        <mxCell id="EhfS3hLfAL1PqbgcSTiK-6" value="" style="html=1;shadow=0;dashed=0;align=center;verticalAlign=middle;shape=mxgraph.arrows2.arrow;dy=0.67;dx=20;notch=0;movable=1;resizable=1;rotatable=1;deletable=1;editable=1;locked=0;connectable=1;fontStyle=1" parent="EhfS3hLfAL1PqbgcSTiK-5" vertex="1">
          <mxGeometry y="4" width="48" height="10" as="geometry" />
        </mxCell>
        <mxCell id="EhfS3hLfAL1PqbgcSTiK-7" value="" style="endArrow=none;html=1;rounded=0;" parent="EhfS3hLfAL1PqbgcSTiK-5" edge="1">
          <mxGeometry width="50" height="50" relative="1" as="geometry">
            <mxPoint x="8" y="20" as="sourcePoint" />
            <mxPoint x="18" as="targetPoint" />
          </mxGeometry>
        </mxCell>
        <mxCell id="EhfS3hLfAL1PqbgcSTiK-8" value="&lt;font style=&quot;font-size: 10px;&quot;&gt;Address&lt;/font&gt;" style="text;html=1;align=center;verticalAlign=middle;whiteSpace=wrap;rounded=0;" parent="EhfS3hLfAL1PqbgcSTiK-16" vertex="1">
          <mxGeometry x="52" y="15" width="60" height="30" as="geometry" />
        </mxCell>
        <mxCell id="EhfS3hLfAL1PqbgcSTiK-9" value="32" style="text;html=1;align=center;verticalAlign=middle;whiteSpace=wrap;rounded=0;" parent="EhfS3hLfAL1PqbgcSTiK-16" vertex="1">
          <mxGeometry width="60" height="30" as="geometry" />
        </mxCell>
        <mxCell id="EhfS3hLfAL1PqbgcSTiK-10" value="32" style="text;html=1;align=center;verticalAlign=middle;whiteSpace=wrap;rounded=0;" parent="EhfS3hLfAL1PqbgcSTiK-16" vertex="1">
          <mxGeometry x="169" y="3" width="60" height="30" as="geometry" />
        </mxCell>
        <mxCell id="EhfS3hLfAL1PqbgcSTiK-11" value="&lt;font style=&quot;font-size: 10px;&quot;&gt;Instruction&lt;/font&gt;" style="text;html=1;align=center;verticalAlign=middle;whiteSpace=wrap;rounded=0;" parent="EhfS3hLfAL1PqbgcSTiK-16" vertex="1">
          <mxGeometry x="126" y="15" width="60" height="30" as="geometry" />
        </mxCell>
        <mxCell id="EhfS3hLfAL1PqbgcSTiK-18" value="" style="group" parent="EhfS3hLfAL1PqbgcSTiK-62" vertex="1" connectable="0">
          <mxGeometry x="205.66000000000008" width="132" height="130" as="geometry" />
        </mxCell>
        <mxCell id="fspLrODclx2UsOWjgFe7-55" value="" style="endArrow=none;html=1;rounded=0;" parent="EhfS3hLfAL1PqbgcSTiK-18" edge="1">
          <mxGeometry width="50" height="50" relative="1" as="geometry">
            <mxPoint x="66.92957746478874" y="65" as="sourcePoint" />
            <mxPoint x="66.92957746478874" y="65" as="targetPoint" />
            <Array as="points">
              <mxPoint x="48.33802816901408" y="75.83333333333334" />
              <mxPoint x="48.33802816901408" y="130" />
              <mxPoint x="85.52112676056338" y="86.66666666666667" />
              <mxPoint x="85.52112676056338" y="43.333333333333336" />
              <mxPoint x="48.33802816901408" />
              <mxPoint x="48.33802816901408" y="54.16666666666667" />
            </Array>
          </mxGeometry>
        </mxCell>
        <mxCell id="EhfS3hLfAL1PqbgcSTiK-17" value="" style="group" parent="EhfS3hLfAL1PqbgcSTiK-18" vertex="1" connectable="0">
          <mxGeometry y="27.083333333333336" width="132" height="80.16666666666667" as="geometry" />
        </mxCell>
        <mxCell id="fspLrODclx2UsOWjgFe7-52" value="" style="html=1;shadow=0;dashed=0;align=center;verticalAlign=middle;shape=mxgraph.arrows2.arrow;dy=0.67;dx=20;notch=0;movable=1;resizable=1;rotatable=1;deletable=1;editable=1;locked=0;connectable=1;" parent="EhfS3hLfAL1PqbgcSTiK-17" vertex="1">
          <mxGeometry width="46.478873239436616" height="10.833333333333334" as="geometry" />
        </mxCell>
        <mxCell id="fspLrODclx2UsOWjgFe7-53" value="" style="html=1;shadow=0;dashed=0;align=center;verticalAlign=middle;shape=mxgraph.arrows2.arrow;dy=0.67;dx=20;notch=0;movable=1;resizable=1;rotatable=1;deletable=1;editable=1;locked=0;connectable=1;" parent="EhfS3hLfAL1PqbgcSTiK-17" vertex="1">
          <mxGeometry y="69.33333333333334" width="46.478873239436616" height="10.833333333333334" as="geometry" />
        </mxCell>
        <mxCell id="fspLrODclx2UsOWjgFe7-54" value="" style="html=1;shadow=0;dashed=0;align=center;verticalAlign=middle;shape=mxgraph.arrows2.arrow;dy=0.67;dx=20;notch=0;movable=1;resizable=1;rotatable=1;deletable=1;editable=1;locked=0;connectable=1;" parent="EhfS3hLfAL1PqbgcSTiK-17" vertex="1">
          <mxGeometry x="85.52112676056338" y="34.66666666666667" width="46.478873239436616" height="10.833333333333334" as="geometry" />
        </mxCell>
        <mxCell id="EhfS3hLfAL1PqbgcSTiK-25" value="" style="endArrow=none;html=1;rounded=0;exitX=0.5;exitY=1;exitDx=0;exitDy=0;entryX=0;entryY=0.5;entryDx=0;entryDy=0;entryPerimeter=0;" parent="EhfS3hLfAL1PqbgcSTiK-62" source="EhfS3hLfAL1PqbgcSTiK-9" target="fspLrODclx2UsOWjgFe7-53" edge="1">
          <mxGeometry width="50" height="50" relative="1" as="geometry">
            <mxPoint x="176.16000000000008" y="122" as="sourcePoint" />
            <mxPoint x="256.1600000000001" y="112" as="targetPoint" />
            <Array as="points">
              <mxPoint x="138.16000000000008" y="102" />
            </Array>
          </mxGeometry>
        </mxCell>
        <mxCell id="kPrliXdwBTatnAJakIU0-32" value="31:0" style="text;html=1;align=center;verticalAlign=middle;whiteSpace=wrap;rounded=0;" parent="EhfS3hLfAL1PqbgcSTiK-62" vertex="1">
          <mxGeometry x="322.1600000000001" y="153" width="60" height="30" as="geometry" />
        </mxCell>
        <mxCell id="UkTgxWB1Igg4LFEnIDUK-82" value="15:11" style="text;html=1;align=center;verticalAlign=middle;whiteSpace=wrap;rounded=0;" vertex="1" parent="EhfS3hLfAL1PqbgcSTiK-62">
          <mxGeometry x="352.1600000000001" y="247" width="60" height="30" as="geometry" />
        </mxCell>
        <mxCell id="EhfS3hLfAL1PqbgcSTiK-105" value="" style="group" parent="1" vertex="1" connectable="0">
          <mxGeometry x="27" y="-62" width="232" height="206" as="geometry" />
        </mxCell>
        <mxCell id="EhfS3hLfAL1PqbgcSTiK-97" value="" style="group" parent="EhfS3hLfAL1PqbgcSTiK-105" vertex="1" connectable="0">
          <mxGeometry y="34" width="232" height="172" as="geometry" />
        </mxCell>
        <mxCell id="fspLrODclx2UsOWjgFe7-41" value="Register File" style="rounded=0;whiteSpace=wrap;html=1;fontStyle=1" parent="EhfS3hLfAL1PqbgcSTiK-97" vertex="1">
          <mxGeometry x="63" y="10" width="120" height="140" as="geometry" />
        </mxCell>
        <mxCell id="EhfS3hLfAL1PqbgcSTiK-20" value="" style="group" parent="EhfS3hLfAL1PqbgcSTiK-97" vertex="1" connectable="0">
          <mxGeometry x="13" y="20" width="48" height="20" as="geometry" />
        </mxCell>
        <mxCell id="EhfS3hLfAL1PqbgcSTiK-21" value="" style="html=1;shadow=0;dashed=0;align=center;verticalAlign=middle;shape=mxgraph.arrows2.arrow;dy=0.67;dx=24.67;notch=0;movable=1;resizable=1;rotatable=1;deletable=1;editable=1;locked=0;connectable=1;fontStyle=1" parent="EhfS3hLfAL1PqbgcSTiK-20" vertex="1">
          <mxGeometry y="4" width="48" height="10" as="geometry" />
        </mxCell>
        <mxCell id="EhfS3hLfAL1PqbgcSTiK-22" value="" style="endArrow=none;html=1;rounded=0;" parent="EhfS3hLfAL1PqbgcSTiK-20" edge="1">
          <mxGeometry width="50" height="50" relative="1" as="geometry">
            <mxPoint x="8" y="20" as="sourcePoint" />
            <mxPoint x="18" as="targetPoint" />
          </mxGeometry>
        </mxCell>
        <mxCell id="EhfS3hLfAL1PqbgcSTiK-65" value="" style="group" parent="EhfS3hLfAL1PqbgcSTiK-97" vertex="1" connectable="0">
          <mxGeometry x="13" y="52" width="48" height="20" as="geometry" />
        </mxCell>
        <mxCell id="EhfS3hLfAL1PqbgcSTiK-66" value="" style="html=1;shadow=0;dashed=0;align=center;verticalAlign=middle;shape=mxgraph.arrows2.arrow;dy=0.67;dx=24.67;notch=0;movable=1;resizable=1;rotatable=1;deletable=1;editable=1;locked=0;connectable=1;fontStyle=1" parent="EhfS3hLfAL1PqbgcSTiK-65" vertex="1">
          <mxGeometry y="4" width="48" height="10" as="geometry" />
        </mxCell>
        <mxCell id="EhfS3hLfAL1PqbgcSTiK-67" value="" style="endArrow=none;html=1;rounded=0;" parent="EhfS3hLfAL1PqbgcSTiK-65" edge="1">
          <mxGeometry width="50" height="50" relative="1" as="geometry">
            <mxPoint x="8" y="20" as="sourcePoint" />
            <mxPoint x="18" as="targetPoint" />
          </mxGeometry>
        </mxCell>
        <mxCell id="EhfS3hLfAL1PqbgcSTiK-68" value="" style="group" parent="EhfS3hLfAL1PqbgcSTiK-97" vertex="1" connectable="0">
          <mxGeometry x="13" y="95" width="48" height="20" as="geometry" />
        </mxCell>
        <mxCell id="EhfS3hLfAL1PqbgcSTiK-69" value="" style="html=1;shadow=0;dashed=0;align=center;verticalAlign=middle;shape=mxgraph.arrows2.arrow;dy=0.67;dx=24.67;notch=0;movable=1;resizable=1;rotatable=1;deletable=1;editable=1;locked=0;connectable=1;fontStyle=1" parent="EhfS3hLfAL1PqbgcSTiK-68" vertex="1">
          <mxGeometry y="1" width="48" height="10" as="geometry" />
        </mxCell>
        <mxCell id="EhfS3hLfAL1PqbgcSTiK-70" value="" style="endArrow=none;html=1;rounded=0;" parent="EhfS3hLfAL1PqbgcSTiK-68" edge="1">
          <mxGeometry width="50" height="50" relative="1" as="geometry">
            <mxPoint x="8" y="20" as="sourcePoint" />
            <mxPoint x="18" as="targetPoint" />
          </mxGeometry>
        </mxCell>
        <mxCell id="EhfS3hLfAL1PqbgcSTiK-71" value="" style="group" parent="EhfS3hLfAL1PqbgcSTiK-97" vertex="1" connectable="0">
          <mxGeometry x="12" y="122" width="48" height="20" as="geometry" />
        </mxCell>
        <mxCell id="EhfS3hLfAL1PqbgcSTiK-72" value="" style="html=1;shadow=0;dashed=0;align=center;verticalAlign=middle;shape=mxgraph.arrows2.arrow;dy=0.67;dx=24.67;notch=0;movable=1;resizable=1;rotatable=1;deletable=1;editable=1;locked=0;connectable=1;fontStyle=1" parent="EhfS3hLfAL1PqbgcSTiK-71" vertex="1">
          <mxGeometry y="4" width="48" height="10" as="geometry" />
        </mxCell>
        <mxCell id="EhfS3hLfAL1PqbgcSTiK-73" value="" style="endArrow=none;html=1;rounded=0;" parent="EhfS3hLfAL1PqbgcSTiK-71" edge="1">
          <mxGeometry width="50" height="50" relative="1" as="geometry">
            <mxPoint x="8" y="20" as="sourcePoint" />
            <mxPoint x="18" as="targetPoint" />
          </mxGeometry>
        </mxCell>
        <mxCell id="EhfS3hLfAL1PqbgcSTiK-74" value="" style="group" parent="EhfS3hLfAL1PqbgcSTiK-97" vertex="1" connectable="0">
          <mxGeometry x="183" y="39" width="48" height="20" as="geometry" />
        </mxCell>
        <mxCell id="EhfS3hLfAL1PqbgcSTiK-75" value="" style="html=1;shadow=0;dashed=0;align=center;verticalAlign=middle;shape=mxgraph.arrows2.arrow;dy=0.67;dx=24.67;notch=0;movable=1;resizable=1;rotatable=1;deletable=1;editable=1;locked=0;connectable=1;fontStyle=1" parent="EhfS3hLfAL1PqbgcSTiK-74" vertex="1">
          <mxGeometry y="4" width="48" height="10" as="geometry" />
        </mxCell>
        <mxCell id="EhfS3hLfAL1PqbgcSTiK-76" value="" style="endArrow=none;html=1;rounded=0;" parent="EhfS3hLfAL1PqbgcSTiK-74" edge="1">
          <mxGeometry width="50" height="50" relative="1" as="geometry">
            <mxPoint x="8" y="20" as="sourcePoint" />
            <mxPoint x="18" as="targetPoint" />
          </mxGeometry>
        </mxCell>
        <mxCell id="EhfS3hLfAL1PqbgcSTiK-77" value="" style="group" parent="EhfS3hLfAL1PqbgcSTiK-97" vertex="1" connectable="0">
          <mxGeometry x="183" y="96" width="48" height="20" as="geometry" />
        </mxCell>
        <mxCell id="EhfS3hLfAL1PqbgcSTiK-78" value="" style="html=1;shadow=0;dashed=0;align=center;verticalAlign=middle;shape=mxgraph.arrows2.arrow;dy=0.67;dx=24.67;notch=0;movable=1;resizable=1;rotatable=1;deletable=1;editable=1;locked=0;connectable=1;fontStyle=1" parent="EhfS3hLfAL1PqbgcSTiK-77" vertex="1">
          <mxGeometry y="4" width="48" height="10" as="geometry" />
        </mxCell>
        <mxCell id="EhfS3hLfAL1PqbgcSTiK-79" value="" style="endArrow=none;html=1;rounded=0;" parent="EhfS3hLfAL1PqbgcSTiK-77" edge="1">
          <mxGeometry width="50" height="50" relative="1" as="geometry">
            <mxPoint x="8" y="20" as="sourcePoint" />
            <mxPoint x="18" as="targetPoint" />
          </mxGeometry>
        </mxCell>
        <mxCell id="EhfS3hLfAL1PqbgcSTiK-80" value="5" style="text;html=1;align=center;verticalAlign=middle;whiteSpace=wrap;rounded=0;fontFamily=Helvetica;fontSize=12;fontColor=default;" parent="EhfS3hLfAL1PqbgcSTiK-97" vertex="1">
          <mxGeometry width="60" height="30" as="geometry" />
        </mxCell>
        <mxCell id="EhfS3hLfAL1PqbgcSTiK-81" value="5" style="text;html=1;align=center;verticalAlign=middle;whiteSpace=wrap;rounded=0;fontFamily=Helvetica;fontSize=12;fontColor=default;" parent="EhfS3hLfAL1PqbgcSTiK-97" vertex="1">
          <mxGeometry y="32" width="60" height="30" as="geometry" />
        </mxCell>
        <mxCell id="EhfS3hLfAL1PqbgcSTiK-82" value="5" style="text;html=1;align=center;verticalAlign=middle;whiteSpace=wrap;rounded=0;fontFamily=Helvetica;fontSize=12;fontColor=default;" parent="EhfS3hLfAL1PqbgcSTiK-97" vertex="1">
          <mxGeometry y="74" width="60" height="30" as="geometry" />
        </mxCell>
        <mxCell id="EhfS3hLfAL1PqbgcSTiK-83" value="32" style="text;html=1;align=center;verticalAlign=middle;whiteSpace=wrap;rounded=0;fontFamily=Helvetica;fontSize=12;fontColor=default;" parent="EhfS3hLfAL1PqbgcSTiK-97" vertex="1">
          <mxGeometry x="1" y="102" width="60" height="30" as="geometry" />
        </mxCell>
        <mxCell id="EhfS3hLfAL1PqbgcSTiK-85" value="32" style="text;html=1;align=center;verticalAlign=middle;whiteSpace=wrap;rounded=0;fontFamily=Helvetica;fontSize=12;fontColor=default;" parent="EhfS3hLfAL1PqbgcSTiK-97" vertex="1">
          <mxGeometry x="172" y="20" width="60" height="30" as="geometry" />
        </mxCell>
        <mxCell id="EhfS3hLfAL1PqbgcSTiK-86" value="32" style="text;html=1;align=center;verticalAlign=middle;whiteSpace=wrap;rounded=0;fontFamily=Helvetica;fontSize=12;fontColor=default;" parent="EhfS3hLfAL1PqbgcSTiK-97" vertex="1">
          <mxGeometry x="172" y="76" width="60" height="30" as="geometry" />
        </mxCell>
        <mxCell id="EhfS3hLfAL1PqbgcSTiK-88" value="&lt;font style=&quot;font-size: 8px;&quot;&gt;Read register&lt;/font&gt;" style="text;html=1;align=center;verticalAlign=middle;whiteSpace=wrap;rounded=0;fontFamily=Helvetica;fontSize=12;fontColor=default;" parent="EhfS3hLfAL1PqbgcSTiK-97" vertex="1">
          <mxGeometry x="60" y="9" width="60" height="30" as="geometry" />
        </mxCell>
        <mxCell id="EhfS3hLfAL1PqbgcSTiK-90" value="&lt;font style=&quot;font-size: 8px;&quot;&gt;Read register&lt;/font&gt;" style="text;html=1;align=center;verticalAlign=middle;whiteSpace=wrap;rounded=0;fontFamily=Helvetica;fontSize=12;fontColor=default;" parent="EhfS3hLfAL1PqbgcSTiK-97" vertex="1">
          <mxGeometry x="61" y="40" width="60" height="30" as="geometry" />
        </mxCell>
        <mxCell id="EhfS3hLfAL1PqbgcSTiK-91" value="&lt;font style=&quot;font-size: 8px;&quot;&gt;Write register&lt;/font&gt;" style="text;html=1;align=center;verticalAlign=middle;whiteSpace=wrap;rounded=0;fontFamily=Helvetica;fontSize=12;fontColor=default;" parent="EhfS3hLfAL1PqbgcSTiK-97" vertex="1">
          <mxGeometry x="61" y="84" width="60" height="30" as="geometry" />
        </mxCell>
        <mxCell id="EhfS3hLfAL1PqbgcSTiK-92" value="&lt;font style=&quot;font-size: 8px;&quot;&gt;Write data&lt;/font&gt;" style="text;html=1;align=center;verticalAlign=middle;whiteSpace=wrap;rounded=0;fontFamily=Helvetica;fontSize=12;fontColor=default;" parent="EhfS3hLfAL1PqbgcSTiK-97" vertex="1">
          <mxGeometry x="54" y="112" width="60" height="30" as="geometry" />
        </mxCell>
        <mxCell id="EhfS3hLfAL1PqbgcSTiK-93" value="&lt;font style=&quot;font-size: 8px;&quot;&gt;Number 1&lt;/font&gt;" style="text;html=1;align=center;verticalAlign=middle;whiteSpace=wrap;rounded=0;fontFamily=Helvetica;fontSize=12;fontColor=default;" parent="EhfS3hLfAL1PqbgcSTiK-97" vertex="1">
          <mxGeometry x="54" y="17" width="60" height="30" as="geometry" />
        </mxCell>
        <mxCell id="EhfS3hLfAL1PqbgcSTiK-94" value="&lt;span style=&quot;font-size: 8px;&quot;&gt;Number 2&lt;/span&gt;" style="text;html=1;align=center;verticalAlign=middle;whiteSpace=wrap;rounded=0;" parent="EhfS3hLfAL1PqbgcSTiK-97" vertex="1">
          <mxGeometry x="55" y="48" width="60" height="30" as="geometry" />
        </mxCell>
        <mxCell id="EhfS3hLfAL1PqbgcSTiK-95" value="&lt;span style=&quot;font-size: 8px;&quot;&gt;Read Data 1&lt;/span&gt;" style="text;html=1;align=center;verticalAlign=middle;whiteSpace=wrap;rounded=0;" parent="EhfS3hLfAL1PqbgcSTiK-97" vertex="1">
          <mxGeometry x="130" y="32" width="60" height="30" as="geometry" />
        </mxCell>
        <mxCell id="EhfS3hLfAL1PqbgcSTiK-96" value="&lt;font style=&quot;font-size: 8px;&quot;&gt;Read Data 2&lt;/font&gt;" style="text;html=1;align=center;verticalAlign=middle;whiteSpace=wrap;rounded=0;" parent="EhfS3hLfAL1PqbgcSTiK-97" vertex="1">
          <mxGeometry x="129" y="88" width="60" height="30" as="geometry" />
        </mxCell>
        <mxCell id="EhfS3hLfAL1PqbgcSTiK-103" value="&lt;font style=&quot;font-size: 8px;&quot;&gt;RegWrite&lt;/font&gt;" style="text;html=1;align=center;verticalAlign=middle;whiteSpace=wrap;rounded=0;" parent="EhfS3hLfAL1PqbgcSTiK-97" vertex="1">
          <mxGeometry x="93" y="-1" width="60" height="30" as="geometry" />
        </mxCell>
        <mxCell id="kPrliXdwBTatnAJakIU0-56" value="25:21" style="text;html=1;align=center;verticalAlign=middle;whiteSpace=wrap;rounded=0;" parent="EhfS3hLfAL1PqbgcSTiK-97" vertex="1">
          <mxGeometry x="-37" y="8" width="60" height="30" as="geometry" />
        </mxCell>
        <mxCell id="kPrliXdwBTatnAJakIU0-57" value="20:16" style="text;html=1;align=center;verticalAlign=middle;whiteSpace=wrap;rounded=0;" parent="EhfS3hLfAL1PqbgcSTiK-97" vertex="1">
          <mxGeometry x="-37" y="40" width="60" height="30" as="geometry" />
        </mxCell>
        <mxCell id="UkTgxWB1Igg4LFEnIDUK-71" value="" style="group" vertex="1" connectable="0" parent="EhfS3hLfAL1PqbgcSTiK-97">
          <mxGeometry x="-38.99999999999997" y="63" width="50" height="110" as="geometry" />
        </mxCell>
        <mxCell id="UkTgxWB1Igg4LFEnIDUK-72" value="" style="rounded=1;whiteSpace=wrap;html=1;rotation=-90;" vertex="1" parent="UkTgxWB1Igg4LFEnIDUK-71">
          <mxGeometry x="-8.649999999999997" y="25.78125" width="66.66666666666667" height="24.0625" as="geometry" />
        </mxCell>
        <mxCell id="UkTgxWB1Igg4LFEnIDUK-73" value="&lt;font style=&quot;font-size: 10px;&quot;&gt;&lt;font style=&quot;&quot;&gt;M&lt;/font&gt;&lt;/font&gt;&lt;font style=&quot;background-color: initial; font-size: 10px;&quot;&gt;&lt;span style=&quot;background-color: initial;&quot;&gt;U&lt;/span&gt;&lt;/font&gt;&lt;span style=&quot;background-color: initial; font-size: 10px;&quot;&gt;X&lt;/span&gt;" style="text;html=1;align=center;verticalAlign=middle;whiteSpace=wrap;rounded=0;fontStyle=0" vertex="1" parent="UkTgxWB1Igg4LFEnIDUK-71">
          <mxGeometry x="11.21666666666665" y="25.78125" width="27.566666666666666" height="25.78125" as="geometry" />
        </mxCell>
        <mxCell id="UkTgxWB1Igg4LFEnIDUK-74" value="" style="endArrow=classic;html=1;rounded=0;entryX=0;entryY=0.5;entryDx=0;entryDy=0;" edge="1" parent="UkTgxWB1Igg4LFEnIDUK-71" target="UkTgxWB1Igg4LFEnIDUK-72">
          <mxGeometry width="50" height="50" relative="1" as="geometry">
            <mxPoint x="24.683333333333337" y="92.8125" as="sourcePoint" />
            <mxPoint x="33.01666666666667" y="101.40625" as="targetPoint" />
          </mxGeometry>
        </mxCell>
        <mxCell id="UkTgxWB1Igg4LFEnIDUK-75" value="RegDst" style="text;html=1;align=center;verticalAlign=middle;whiteSpace=wrap;rounded=0;" vertex="1" parent="UkTgxWB1Igg4LFEnIDUK-71">
          <mxGeometry x="-15" y="84.21875" width="50" height="25.78125" as="geometry" />
        </mxCell>
        <mxCell id="UkTgxWB1Igg4LFEnIDUK-76" value="&lt;b&gt;1&lt;/b&gt;" style="text;html=1;align=center;verticalAlign=middle;whiteSpace=wrap;rounded=0;" vertex="1" parent="UkTgxWB1Igg4LFEnIDUK-71">
          <mxGeometry width="50" height="25.78125" as="geometry" />
        </mxCell>
        <mxCell id="UkTgxWB1Igg4LFEnIDUK-77" value="&lt;b&gt;0&lt;/b&gt;" style="text;html=1;align=center;verticalAlign=middle;whiteSpace=wrap;rounded=0;" vertex="1" parent="UkTgxWB1Igg4LFEnIDUK-71">
          <mxGeometry y="50" width="50" height="27.34" as="geometry" />
        </mxCell>
        <mxCell id="UkTgxWB1Igg4LFEnIDUK-78" value="" style="endArrow=classic;html=1;rounded=0;entryX=0.277;entryY=0.5;entryDx=0;entryDy=0;entryPerimeter=0;exitX=0;exitY=0;exitDx=0;exitDy=0;" edge="1" parent="EhfS3hLfAL1PqbgcSTiK-97" source="UkTgxWB1Igg4LFEnIDUK-76">
          <mxGeometry width="50" height="50" relative="1" as="geometry">
            <mxPoint x="-47" y="78" as="sourcePoint" />
            <mxPoint x="-25.149999999999864" y="76.890625" as="targetPoint" />
            <Array as="points">
              <mxPoint x="-39" y="77" />
            </Array>
          </mxGeometry>
        </mxCell>
        <mxCell id="UkTgxWB1Igg4LFEnIDUK-79" value="" style="endArrow=classic;html=1;rounded=0;entryX=0.277;entryY=0.444;entryDx=0;entryDy=0;entryPerimeter=0;" edge="1" parent="EhfS3hLfAL1PqbgcSTiK-97" target="UkTgxWB1Igg4LFEnIDUK-77">
          <mxGeometry width="50" height="50" relative="1" as="geometry">
            <mxPoint x="-67" y="125" as="sourcePoint" />
            <mxPoint x="-5.16" y="96" as="targetPoint" />
          </mxGeometry>
        </mxCell>
        <mxCell id="UkTgxWB1Igg4LFEnIDUK-83" value="" style="endArrow=none;html=1;rounded=0;exitX=1;exitY=0.5;exitDx=0;exitDy=0;entryX=0.25;entryY=0;entryDx=0;entryDy=0;" edge="1" parent="EhfS3hLfAL1PqbgcSTiK-97">
          <mxGeometry width="50" height="50" relative="1" as="geometry">
            <mxPoint x="-2.216666666666697" y="100.671875" as="sourcePoint" />
            <mxPoint x="14" y="101" as="targetPoint" />
          </mxGeometry>
        </mxCell>
        <mxCell id="EhfS3hLfAL1PqbgcSTiK-98" value="" style="group;rotation=-90;" parent="EhfS3hLfAL1PqbgcSTiK-105" vertex="1" connectable="0">
          <mxGeometry x="100" y="9" width="48" height="30" as="geometry" />
        </mxCell>
        <mxCell id="EhfS3hLfAL1PqbgcSTiK-99" value="" style="html=1;shadow=0;dashed=0;align=center;verticalAlign=middle;shape=mxgraph.arrows2.arrow;dy=0.67;dx=24.67;notch=0;movable=1;resizable=1;rotatable=1;deletable=1;editable=1;locked=0;connectable=1;fontStyle=1;rotation=90;" parent="EhfS3hLfAL1PqbgcSTiK-98" vertex="1">
          <mxGeometry x="-1" y="4" width="48" height="10" as="geometry" />
        </mxCell>
        <mxCell id="EhfS3hLfAL1PqbgcSTiK-100" value="" style="endArrow=none;html=1;rounded=0;" parent="EhfS3hLfAL1PqbgcSTiK-98" edge="1">
          <mxGeometry width="50" height="50" relative="1" as="geometry">
            <mxPoint x="34" y="4" as="sourcePoint" />
            <mxPoint x="14" y="-6" as="targetPoint" />
          </mxGeometry>
        </mxCell>
        <mxCell id="EhfS3hLfAL1PqbgcSTiK-102" value="1" style="text;html=1;align=center;verticalAlign=middle;whiteSpace=wrap;rounded=0;" parent="EhfS3hLfAL1PqbgcSTiK-98" vertex="1">
          <mxGeometry x="-20" y="-21" width="60" height="30" as="geometry" />
        </mxCell>
        <mxCell id="kPrliXdwBTatnAJakIU0-25" value="" style="group" parent="1" vertex="1" connectable="0">
          <mxGeometry x="431" y="-55" width="200" height="211" as="geometry" />
        </mxCell>
        <mxCell id="EhfS3hLfAL1PqbgcSTiK-27" value="" style="group" parent="kPrliXdwBTatnAJakIU0-25" vertex="1" connectable="0">
          <mxGeometry x="-41.18181818181818" y="15" width="181.8181818181818" height="196" as="geometry" />
        </mxCell>
        <mxCell id="EhfS3hLfAL1PqbgcSTiK-28" value="" style="endArrow=none;html=1;rounded=0;" parent="EhfS3hLfAL1PqbgcSTiK-27" edge="1">
          <mxGeometry width="50" height="50" relative="1" as="geometry">
            <mxPoint x="92.18950064020487" y="98" as="sourcePoint" />
            <mxPoint x="92.18950064020487" y="98" as="targetPoint" />
            <Array as="points">
              <mxPoint x="66.58130601792571" y="114.33333333333334" />
              <mxPoint x="66.58130601792571" y="196" />
              <mxPoint x="117.79769526248398" y="130.66666666666669" />
              <mxPoint x="117.79769526248398" y="65.33333333333334" />
              <mxPoint x="66.58130601792571" />
              <mxPoint x="66.58130601792571" y="81.66666666666667" />
            </Array>
          </mxGeometry>
        </mxCell>
        <mxCell id="EhfS3hLfAL1PqbgcSTiK-29" value="" style="group" parent="EhfS3hLfAL1PqbgcSTiK-27" vertex="1" connectable="0">
          <mxGeometry y="40.833333333333336" width="181.8181818181818" height="120.86666666666666" as="geometry" />
        </mxCell>
        <mxCell id="EhfS3hLfAL1PqbgcSTiK-30" value="" style="html=1;shadow=0;dashed=0;align=center;verticalAlign=middle;shape=mxgraph.arrows2.arrow;dy=0.67;dx=20;notch=0;movable=1;resizable=1;rotatable=1;deletable=1;editable=1;locked=0;connectable=1;" parent="EhfS3hLfAL1PqbgcSTiK-29" vertex="1">
          <mxGeometry width="64.02048655569781" height="16.333333333333336" as="geometry" />
        </mxCell>
        <mxCell id="EhfS3hLfAL1PqbgcSTiK-31" value="" style="html=1;shadow=0;dashed=0;align=center;verticalAlign=middle;shape=mxgraph.arrows2.arrow;dy=0.67;dx=20;notch=0;movable=1;resizable=1;rotatable=1;deletable=1;editable=1;locked=0;connectable=1;" parent="EhfS3hLfAL1PqbgcSTiK-29" vertex="1">
          <mxGeometry y="104.53333333333335" width="64.02048655569781" height="16.333333333333336" as="geometry" />
        </mxCell>
        <mxCell id="EhfS3hLfAL1PqbgcSTiK-32" value="" style="html=1;shadow=0;dashed=0;align=center;verticalAlign=middle;shape=mxgraph.arrows2.arrow;dy=0.67;dx=20;notch=0;movable=1;resizable=1;rotatable=1;deletable=1;editable=1;locked=0;connectable=1;" parent="EhfS3hLfAL1PqbgcSTiK-29" vertex="1">
          <mxGeometry x="117.79769526248398" y="52.26666666666667" width="64.02048655569781" height="16.333333333333336" as="geometry" />
        </mxCell>
        <mxCell id="kPrliXdwBTatnAJakIU0-15" value="&lt;font style=&quot;font-size: 8px;&quot;&gt;Zero&lt;/font&gt;" style="text;html=1;align=center;verticalAlign=middle;whiteSpace=wrap;rounded=0;" parent="EhfS3hLfAL1PqbgcSTiK-29" vertex="1">
          <mxGeometry x="72.72727272727273" y="21.26666666666671" width="68.18181818181819" height="30" as="geometry" />
        </mxCell>
        <mxCell id="kPrliXdwBTatnAJakIU0-18" value="32" style="text;html=1;align=center;verticalAlign=middle;whiteSpace=wrap;rounded=0;" parent="EhfS3hLfAL1PqbgcSTiK-29" vertex="1">
          <mxGeometry x="101.13636363636364" y="60.166666666666686" width="68.18181818181819" height="30" as="geometry" />
        </mxCell>
        <mxCell id="kPrliXdwBTatnAJakIU0-19" value="Res" style="text;html=1;align=center;verticalAlign=middle;whiteSpace=wrap;rounded=0;" parent="EhfS3hLfAL1PqbgcSTiK-29" vertex="1">
          <mxGeometry x="70.45454545454545" y="45.43666666666667" width="68.18181818181819" height="30" as="geometry" />
        </mxCell>
        <mxCell id="kPrliXdwBTatnAJakIU0-16" value="32" style="text;html=1;align=center;verticalAlign=middle;whiteSpace=wrap;rounded=0;" parent="EhfS3hLfAL1PqbgcSTiK-27" vertex="1">
          <mxGeometry x="-6.8181818181818175" y="17.829999999999984" width="68.18181818181819" height="30" as="geometry" />
        </mxCell>
        <mxCell id="kPrliXdwBTatnAJakIU0-7" value="" style="endArrow=classic;html=1;rounded=0;" parent="kPrliXdwBTatnAJakIU0-25" edge="1">
          <mxGeometry width="50" height="50" relative="1" as="geometry">
            <mxPoint x="77" y="95" as="sourcePoint" />
            <mxPoint x="99.72727272727272" y="95" as="targetPoint" />
          </mxGeometry>
        </mxCell>
        <mxCell id="kPrliXdwBTatnAJakIU0-8" value="" style="endArrow=none;html=1;rounded=0;" parent="kPrliXdwBTatnAJakIU0-25" edge="1">
          <mxGeometry width="50" height="50" relative="1" as="geometry">
            <mxPoint x="-25.272727272727273" y="75" as="sourcePoint" />
            <mxPoint x="-13.909090909090907" y="55" as="targetPoint" />
          </mxGeometry>
        </mxCell>
        <mxCell id="kPrliXdwBTatnAJakIU0-9" value="" style="endArrow=none;html=1;rounded=0;" parent="kPrliXdwBTatnAJakIU0-25" edge="1">
          <mxGeometry width="50" height="50" relative="1" as="geometry">
            <mxPoint x="94.04545454545453" y="126" as="sourcePoint" />
            <mxPoint x="105.4090909090909" y="106" as="targetPoint" />
          </mxGeometry>
        </mxCell>
        <mxCell id="kPrliXdwBTatnAJakIU0-10" value="" style="endArrow=none;html=1;rounded=0;" parent="kPrliXdwBTatnAJakIU0-25" edge="1">
          <mxGeometry width="50" height="50" relative="1" as="geometry">
            <mxPoint x="-25.272727272727273" y="180" as="sourcePoint" />
            <mxPoint x="-13.909090909090907" y="160" as="targetPoint" />
          </mxGeometry>
        </mxCell>
        <mxCell id="kPrliXdwBTatnAJakIU0-11" value="" style="group;rotation=-90;" parent="kPrliXdwBTatnAJakIU0-25" vertex="1" connectable="0">
          <mxGeometry x="23.590909090909093" y="11" width="68.17909090909086" height="30" as="geometry" />
        </mxCell>
        <mxCell id="kPrliXdwBTatnAJakIU0-12" value="" style="html=1;shadow=0;dashed=0;align=center;verticalAlign=middle;shape=mxgraph.arrows2.arrow;dy=0.67;dx=24.67;notch=0;movable=1;resizable=1;rotatable=1;deletable=1;editable=1;locked=0;connectable=1;fontStyle=1;rotation=90;" parent="kPrliXdwBTatnAJakIU0-11" vertex="1">
          <mxGeometry x="-0.13636363636363624" y="4" width="54.54545454545454" height="10" as="geometry" />
        </mxCell>
        <mxCell id="kPrliXdwBTatnAJakIU0-13" value="" style="endArrow=none;html=1;rounded=0;" parent="kPrliXdwBTatnAJakIU0-11" edge="1">
          <mxGeometry width="50" height="50" relative="1" as="geometry">
            <mxPoint x="38.63636363636363" y="4" as="sourcePoint" />
            <mxPoint x="15.909090909090908" y="-6" as="targetPoint" />
          </mxGeometry>
        </mxCell>
        <mxCell id="kPrliXdwBTatnAJakIU0-14" value="3&lt;span style=&quot;color: rgba(0, 0, 0, 0); font-family: monospace; font-size: 0px; text-align: start; text-wrap-mode: nowrap;&quot;&gt;%3CmxGraphModel%3E%3Croot%3E%3CmxCell%20id%3D%220%22%2F%3E%3CmxCell%20id%3D%221%22%20parent%3D%220%22%2F%3E%3CmxCell%20id%3D%222%22%20value%3D%22%22%20style%3D%22group%3Brotation%3D-90%3B%22%20vertex%3D%221%22%20connectable%3D%220%22%20parent%3D%221%22%3E%3CmxGeometry%20x%3D%22881%22%20y%3D%22398%22%20width%3D%2248%22%20height%3D%2230%22%20as%3D%22geometry%22%2F%3E%3C%2FmxCell%3E%3CmxCell%20id%3D%223%22%20value%3D%22%22%20style%3D%22html%3D1%3Bshadow%3D0%3Bdashed%3D0%3Balign%3Dcenter%3BverticalAlign%3Dmiddle%3Bshape%3Dmxgraph.arrows2.arrow%3Bdy%3D0.67%3Bdx%3D24.67%3Bnotch%3D0%3Bmovable%3D1%3Bresizable%3D1%3Brotatable%3D1%3Bdeletable%3D1%3Beditable%3D1%3Blocked%3D0%3Bconnectable%3D1%3BfontStyle%3D1%3Brotation%3D90%3B%22%20vertex%3D%221%22%20parent%3D%222%22%3E%3CmxGeometry%20x%3D%22-1%22%20y%3D%224%22%20width%3D%2248%22%20height%3D%2210%22%20as%3D%22geometry%22%2F%3E%3C%2FmxCell%3E%3CmxCell%20id%3D%224%22%20value%3D%22%22%20style%3D%22endArrow%3Dnone%3Bhtml%3D1%3Brounded%3D0%3B%22%20edge%3D%221%22%20parent%3D%222%22%3E%3CmxGeometry%20width%3D%2250%22%20height%3D%2250%22%20relative%3D%221%22%20as%3D%22geometry%22%3E%3CmxPoint%20x%3D%2234%22%20y%3D%224%22%20as%3D%22sourcePoint%22%2F%3E%3CmxPoint%20x%3D%2214%22%20y%3D%22-6%22%20as%3D%22targetPoint%22%2F%3E%3C%2FmxGeometry%3E%3C%2FmxCell%3E%3CmxCell%20id%3D%225%22%20value%3D%221%22%20style%3D%22text%3Bhtml%3D1%3Balign%3Dcenter%3BverticalAlign%3Dmiddle%3BwhiteSpace%3Dwrap%3Brounded%3D0%3B%22%20vertex%3D%221%22%20parent%3D%222%22%3E%3CmxGeometry%20x%3D%22-20%22%20y%3D%22-21%22%20width%3D%2260%22%20height%3D%2230%22%20as%3D%22geometry%22%2F%3E%3C%2FmxCell%3E%3C%2Froot%3E%3C%2FmxGraphModel%3E&lt;/span&gt;" style="text;html=1;align=center;verticalAlign=middle;whiteSpace=wrap;rounded=0;" parent="kPrliXdwBTatnAJakIU0-11" vertex="1">
          <mxGeometry x="-22.727272727272723" y="-21" width="68.18181818181817" height="30" as="geometry" />
        </mxCell>
        <mxCell id="kPrliXdwBTatnAJakIU0-24" value="ALU operation" style="text;html=1;align=center;verticalAlign=middle;whiteSpace=wrap;rounded=0;" parent="kPrliXdwBTatnAJakIU0-11" vertex="1">
          <mxGeometry x="-18.73000000000004" y="-40" width="90.9090909090909" height="30" as="geometry" />
        </mxCell>
        <mxCell id="kPrliXdwBTatnAJakIU0-17" value="32" style="text;html=1;align=center;verticalAlign=middle;whiteSpace=wrap;rounded=0;" parent="kPrliXdwBTatnAJakIU0-25" vertex="1">
          <mxGeometry x="-47" y="138.82999999999993" width="68.18181818181819" height="30" as="geometry" />
        </mxCell>
        <mxCell id="kPrliXdwBTatnAJakIU0-22" value="A" style="text;html=1;align=center;verticalAlign=middle;whiteSpace=wrap;rounded=0;" parent="kPrliXdwBTatnAJakIU0-25" vertex="1">
          <mxGeometry x="-0.2727272727272734" y="49" width="68.18181818181819" height="30" as="geometry" />
        </mxCell>
        <mxCell id="kPrliXdwBTatnAJakIU0-23" value="B" style="text;html=1;align=center;verticalAlign=middle;whiteSpace=wrap;rounded=0;" parent="kPrliXdwBTatnAJakIU0-25" vertex="1">
          <mxGeometry x="-0.2727272727272734" y="154" width="68.18181818181819" height="30" as="geometry" />
        </mxCell>
        <mxCell id="UkTgxWB1Igg4LFEnIDUK-7" value="" style="endArrow=none;html=1;rounded=0;" edge="1" parent="kPrliXdwBTatnAJakIU0-25">
          <mxGeometry width="50" height="50" relative="1" as="geometry">
            <mxPoint x="132" y="-25" as="sourcePoint" />
            <mxPoint x="162" y="-25" as="targetPoint" />
          </mxGeometry>
        </mxCell>
        <mxCell id="kPrliXdwBTatnAJakIU0-26" value="" style="endArrow=none;html=1;rounded=0;exitX=1;exitY=1;exitDx=0;exitDy=0;entryX=0;entryY=0.5;entryDx=0;entryDy=0;entryPerimeter=0;" parent="1" target="EhfS3hLfAL1PqbgcSTiK-30" edge="1">
          <mxGeometry width="50" height="50" relative="1" as="geometry">
            <mxPoint x="233" y="20" as="sourcePoint" />
            <mxPoint x="340" y="57" as="targetPoint" />
            <Array as="points">
              <mxPoint x="270" y="20" />
              <mxPoint x="270" y="10" />
            </Array>
          </mxGeometry>
        </mxCell>
        <mxCell id="kPrliXdwBTatnAJakIU0-27" value="" style="endArrow=none;html=1;rounded=0;exitX=0.977;exitY=0.972;exitDx=0;exitDy=0;exitPerimeter=0;" parent="1" source="EhfS3hLfAL1PqbgcSTiK-86" edge="1">
          <mxGeometry width="50" height="50" relative="1" as="geometry">
            <mxPoint x="233" y="125" as="sourcePoint" />
            <mxPoint x="270" y="90" as="targetPoint" />
            <Array as="points">
              <mxPoint x="270" y="77" />
            </Array>
          </mxGeometry>
        </mxCell>
        <mxCell id="kPrliXdwBTatnAJakIU0-28" value="" style="endArrow=none;html=1;rounded=0;entryX=0.833;entryY=0.692;entryDx=0;entryDy=0;entryPerimeter=0;" parent="1" target="kPrliXdwBTatnAJakIU0-56" edge="1">
          <mxGeometry width="50" height="50" relative="1" as="geometry">
            <mxPoint x="-70" y="3" as="sourcePoint" />
            <mxPoint x="29.83999999999969" y="0.7700000000002092" as="targetPoint" />
            <Array as="points">
              <mxPoint x="-40" y="3" />
              <mxPoint x="-40" y="1" />
            </Array>
          </mxGeometry>
        </mxCell>
        <mxCell id="kPrliXdwBTatnAJakIU0-30" value="" style="endArrow=none;html=1;rounded=0;exitX=1.051;exitY=-0.039;exitDx=0;exitDy=0;exitPerimeter=0;" parent="1" source="UkTgxWB1Igg4LFEnIDUK-76" edge="1">
          <mxGeometry width="50" height="50" relative="1" as="geometry">
            <mxPoint x="29.83999999999969" y="34.149999999999864" as="sourcePoint" />
            <mxPoint x="-40" y="3" as="targetPoint" />
            <Array as="points">
              <mxPoint x="-40" y="34" />
            </Array>
          </mxGeometry>
        </mxCell>
        <mxCell id="kPrliXdwBTatnAJakIU0-60" value="" style="group" parent="1" vertex="1" connectable="0">
          <mxGeometry x="464" y="-185" width="105" height="105" as="geometry" />
        </mxCell>
        <mxCell id="kPrliXdwBTatnAJakIU0-61" value="" style="endArrow=none;html=1;rounded=0;" parent="kPrliXdwBTatnAJakIU0-60" edge="1">
          <mxGeometry width="50" height="50" relative="1" as="geometry">
            <mxPoint x="53.23943661971831" y="52.5" as="sourcePoint" />
            <mxPoint x="53.23943661971831" y="52.5" as="targetPoint" />
            <Array as="points">
              <mxPoint x="38.450704225352105" y="61.25000000000001" />
              <mxPoint x="38.450704225352105" y="105" />
              <mxPoint x="68.0281690140845" y="70" />
              <mxPoint x="68.0281690140845" y="35" />
              <mxPoint x="38.450704225352105" />
              <mxPoint x="38.450704225352105" y="43.75000000000001" />
            </Array>
          </mxGeometry>
        </mxCell>
        <mxCell id="kPrliXdwBTatnAJakIU0-62" value="" style="group" parent="kPrliXdwBTatnAJakIU0-60" vertex="1" connectable="0">
          <mxGeometry y="21.875000000000004" width="105" height="64.75" as="geometry" />
        </mxCell>
        <mxCell id="kPrliXdwBTatnAJakIU0-63" value="" style="html=1;shadow=0;dashed=0;align=center;verticalAlign=middle;shape=mxgraph.arrows2.arrow;dy=0.67;dx=20;notch=0;movable=1;resizable=1;rotatable=1;deletable=1;editable=1;locked=0;connectable=1;" parent="kPrliXdwBTatnAJakIU0-62" vertex="1">
          <mxGeometry width="36.97183098591549" height="8.75" as="geometry" />
        </mxCell>
        <mxCell id="kPrliXdwBTatnAJakIU0-64" value="" style="html=1;shadow=0;dashed=0;align=center;verticalAlign=middle;shape=mxgraph.arrows2.arrow;dy=0.67;dx=20;notch=0;movable=1;resizable=1;rotatable=1;deletable=1;editable=1;locked=0;connectable=1;" parent="kPrliXdwBTatnAJakIU0-62" vertex="1">
          <mxGeometry y="56" width="36.97183098591549" height="8.75" as="geometry" />
        </mxCell>
        <mxCell id="kPrliXdwBTatnAJakIU0-65" value="" style="html=1;shadow=0;dashed=0;align=center;verticalAlign=middle;shape=mxgraph.arrows2.arrow;dy=0.67;dx=20;notch=0;movable=1;resizable=1;rotatable=1;deletable=1;editable=1;locked=0;connectable=1;" parent="kPrliXdwBTatnAJakIU0-62" vertex="1">
          <mxGeometry x="68.0281690140845" y="28" width="36.97183098591549" height="8.75" as="geometry" />
        </mxCell>
        <mxCell id="fryc1NkC0Bsvut2HGKPe-6" value="" style="endArrow=classic;html=1;rounded=0;entryX=0;entryY=0;entryDx=0;entryDy=2.9312500000000004;entryPerimeter=0;" parent="kPrliXdwBTatnAJakIU0-62" edge="1" target="kPrliXdwBTatnAJakIU0-64">
          <mxGeometry width="50" height="50" relative="1" as="geometry">
            <mxPoint x="-504" y="193.125" as="sourcePoint" />
            <mxPoint x="-10" y="60.50961538461537" as="targetPoint" />
            <Array as="points">
              <mxPoint x="-504" y="343.125" />
              <mxPoint x="-382" y="343.125" />
              <mxPoint x="-174" y="343.125" />
              <mxPoint x="-174" y="59.125" />
            </Array>
          </mxGeometry>
        </mxCell>
        <mxCell id="ae_eKECDKsGE9r01VdnN-3" value="" style="group" parent="1" vertex="1" connectable="0">
          <mxGeometry x="-470.00000000000006" y="300" width="430.00000000000006" height="286" as="geometry" />
        </mxCell>
        <mxCell id="ae_eKECDKsGE9r01VdnN-4" value="Program Counter" style="rounded=0;whiteSpace=wrap;html=1;fontStyle=1" parent="ae_eKECDKsGE9r01VdnN-3" vertex="1">
          <mxGeometry y="143" width="120" height="60" as="geometry" />
        </mxCell>
        <mxCell id="ae_eKECDKsGE9r01VdnN-5" value="" style="group" parent="ae_eKECDKsGE9r01VdnN-3" vertex="1" connectable="0">
          <mxGeometry x="108.16000000000008" y="142" width="229" height="144" as="geometry" />
        </mxCell>
        <mxCell id="ae_eKECDKsGE9r01VdnN-6" value="Instruction Memory" style="rounded=0;whiteSpace=wrap;html=1;fontStyle=1" parent="ae_eKECDKsGE9r01VdnN-5" vertex="1">
          <mxGeometry x="61" y="14" width="120" height="130" as="geometry" />
        </mxCell>
        <mxCell id="ae_eKECDKsGE9r01VdnN-7" value="" style="group" parent="ae_eKECDKsGE9r01VdnN-5" vertex="1" connectable="0">
          <mxGeometry x="181" y="24" width="48" height="20" as="geometry" />
        </mxCell>
        <mxCell id="ae_eKECDKsGE9r01VdnN-8" value="" style="html=1;shadow=0;dashed=0;align=center;verticalAlign=middle;shape=mxgraph.arrows2.arrow;dy=0.67;dx=20;notch=0;movable=1;resizable=1;rotatable=1;deletable=1;editable=1;locked=0;connectable=1;fontStyle=1" parent="ae_eKECDKsGE9r01VdnN-7" vertex="1">
          <mxGeometry y="4" width="48" height="10" as="geometry" />
        </mxCell>
        <mxCell id="ae_eKECDKsGE9r01VdnN-9" value="" style="endArrow=none;html=1;rounded=0;" parent="ae_eKECDKsGE9r01VdnN-7" edge="1">
          <mxGeometry width="50" height="50" relative="1" as="geometry">
            <mxPoint x="8" y="20" as="sourcePoint" />
            <mxPoint x="18" as="targetPoint" />
          </mxGeometry>
        </mxCell>
        <mxCell id="ae_eKECDKsGE9r01VdnN-10" value="" style="group" parent="ae_eKECDKsGE9r01VdnN-5" vertex="1" connectable="0">
          <mxGeometry x="12" y="22" width="48" height="20" as="geometry" />
        </mxCell>
        <mxCell id="ae_eKECDKsGE9r01VdnN-11" value="" style="html=1;shadow=0;dashed=0;align=center;verticalAlign=middle;shape=mxgraph.arrows2.arrow;dy=0.67;dx=20;notch=0;movable=1;resizable=1;rotatable=1;deletable=1;editable=1;locked=0;connectable=1;fontStyle=1" parent="ae_eKECDKsGE9r01VdnN-10" vertex="1">
          <mxGeometry y="4" width="48" height="10" as="geometry" />
        </mxCell>
        <mxCell id="ae_eKECDKsGE9r01VdnN-12" value="" style="endArrow=none;html=1;rounded=0;" parent="ae_eKECDKsGE9r01VdnN-10" edge="1">
          <mxGeometry width="50" height="50" relative="1" as="geometry">
            <mxPoint x="8" y="20" as="sourcePoint" />
            <mxPoint x="18" as="targetPoint" />
          </mxGeometry>
        </mxCell>
        <mxCell id="ae_eKECDKsGE9r01VdnN-13" value="&lt;font style=&quot;font-size: 10px;&quot;&gt;Address&lt;/font&gt;" style="text;html=1;align=center;verticalAlign=middle;whiteSpace=wrap;rounded=0;" parent="ae_eKECDKsGE9r01VdnN-5" vertex="1">
          <mxGeometry x="52" y="15" width="60" height="30" as="geometry" />
        </mxCell>
        <mxCell id="ae_eKECDKsGE9r01VdnN-14" value="32" style="text;html=1;align=center;verticalAlign=middle;whiteSpace=wrap;rounded=0;" parent="ae_eKECDKsGE9r01VdnN-5" vertex="1">
          <mxGeometry width="60" height="30" as="geometry" />
        </mxCell>
        <mxCell id="ae_eKECDKsGE9r01VdnN-15" value="32" style="text;html=1;align=center;verticalAlign=middle;whiteSpace=wrap;rounded=0;" parent="ae_eKECDKsGE9r01VdnN-5" vertex="1">
          <mxGeometry x="169" y="3" width="60" height="30" as="geometry" />
        </mxCell>
        <mxCell id="ae_eKECDKsGE9r01VdnN-16" value="&lt;font style=&quot;font-size: 10px;&quot;&gt;Instruction&lt;/font&gt;" style="text;html=1;align=center;verticalAlign=middle;whiteSpace=wrap;rounded=0;" parent="ae_eKECDKsGE9r01VdnN-5" vertex="1">
          <mxGeometry x="126" y="15" width="60" height="30" as="geometry" />
        </mxCell>
        <mxCell id="ae_eKECDKsGE9r01VdnN-17" value="" style="group" parent="ae_eKECDKsGE9r01VdnN-3" vertex="1" connectable="0">
          <mxGeometry x="160.66000000000008" width="132" height="130" as="geometry" />
        </mxCell>
        <mxCell id="ae_eKECDKsGE9r01VdnN-18" value="" style="endArrow=none;html=1;rounded=0;" parent="ae_eKECDKsGE9r01VdnN-17" edge="1">
          <mxGeometry width="50" height="50" relative="1" as="geometry">
            <mxPoint x="66.92957746478874" y="65" as="sourcePoint" />
            <mxPoint x="66.92957746478874" y="65" as="targetPoint" />
            <Array as="points">
              <mxPoint x="48.33802816901408" y="75.83333333333334" />
              <mxPoint x="48.33802816901408" y="130" />
              <mxPoint x="85.52112676056338" y="86.66666666666667" />
              <mxPoint x="85.52112676056338" y="43.333333333333336" />
              <mxPoint x="48.33802816901408" />
              <mxPoint x="48.33802816901408" y="54.16666666666667" />
            </Array>
          </mxGeometry>
        </mxCell>
        <mxCell id="ae_eKECDKsGE9r01VdnN-19" value="" style="group" parent="ae_eKECDKsGE9r01VdnN-17" vertex="1" connectable="0">
          <mxGeometry y="27.083333333333336" width="132" height="80.16666666666667" as="geometry" />
        </mxCell>
        <mxCell id="ae_eKECDKsGE9r01VdnN-20" value="" style="html=1;shadow=0;dashed=0;align=center;verticalAlign=middle;shape=mxgraph.arrows2.arrow;dy=0.67;dx=20;notch=0;movable=1;resizable=1;rotatable=1;deletable=1;editable=1;locked=0;connectable=1;" parent="ae_eKECDKsGE9r01VdnN-19" vertex="1">
          <mxGeometry width="46.478873239436616" height="10.833333333333334" as="geometry" />
        </mxCell>
        <mxCell id="ae_eKECDKsGE9r01VdnN-21" value="" style="html=1;shadow=0;dashed=0;align=center;verticalAlign=middle;shape=mxgraph.arrows2.arrow;dy=0.67;dx=20;notch=0;movable=1;resizable=1;rotatable=1;deletable=1;editable=1;locked=0;connectable=1;" parent="ae_eKECDKsGE9r01VdnN-19" vertex="1">
          <mxGeometry y="69.33333333333334" width="46.478873239436616" height="10.833333333333334" as="geometry" />
        </mxCell>
        <mxCell id="ae_eKECDKsGE9r01VdnN-22" value="" style="html=1;shadow=0;dashed=0;align=center;verticalAlign=middle;shape=mxgraph.arrows2.arrow;dy=0.67;dx=20;notch=0;movable=1;resizable=1;rotatable=1;deletable=1;editable=1;locked=0;connectable=1;" parent="ae_eKECDKsGE9r01VdnN-19" vertex="1">
          <mxGeometry x="85.52112676056338" y="34.66666666666667" width="46.478873239436616" height="10.833333333333334" as="geometry" />
        </mxCell>
        <mxCell id="ae_eKECDKsGE9r01VdnN-23" value="" style="endArrow=none;html=1;rounded=0;exitX=0.5;exitY=1;exitDx=0;exitDy=0;entryX=0;entryY=0.5;entryDx=0;entryDy=0;entryPerimeter=0;" parent="ae_eKECDKsGE9r01VdnN-3" source="ae_eKECDKsGE9r01VdnN-14" target="ae_eKECDKsGE9r01VdnN-21" edge="1">
          <mxGeometry width="50" height="50" relative="1" as="geometry">
            <mxPoint x="176.16000000000008" y="122" as="sourcePoint" />
            <mxPoint x="256.1600000000001" y="112" as="targetPoint" />
            <Array as="points">
              <mxPoint x="138.16000000000008" y="102" />
            </Array>
          </mxGeometry>
        </mxCell>
        <mxCell id="ae_eKECDKsGE9r01VdnN-25" value="31:0" style="text;html=1;align=center;verticalAlign=middle;whiteSpace=wrap;rounded=0;" parent="ae_eKECDKsGE9r01VdnN-3" vertex="1">
          <mxGeometry x="322.1600000000001" y="153" width="60" height="30" as="geometry" />
        </mxCell>
        <mxCell id="ae_eKECDKsGE9r01VdnN-2" value="&lt;b&gt;4&lt;/b&gt;" style="text;html=1;align=center;verticalAlign=middle;whiteSpace=wrap;rounded=0;" parent="ae_eKECDKsGE9r01VdnN-3" vertex="1">
          <mxGeometry x="120.00000000000009" y="17" width="60" height="30" as="geometry" />
        </mxCell>
        <mxCell id="ae_eKECDKsGE9r01VdnN-1" value="" style="endArrow=none;html=1;rounded=0;entryX=0;entryY=0.5;entryDx=0;entryDy=0;exitX=1;exitY=0.5;exitDx=0;exitDy=0;exitPerimeter=0;" parent="ae_eKECDKsGE9r01VdnN-3" source="ae_eKECDKsGE9r01VdnN-22" target="ae_eKECDKsGE9r01VdnN-4" edge="1">
          <mxGeometry width="50" height="50" relative="1" as="geometry">
            <mxPoint x="396.1600000000001" y="67" as="sourcePoint" />
            <mxPoint x="-83.83999999999992" y="-28" as="targetPoint" />
            <Array as="points">
              <mxPoint x="346.1600000000001" y="67" />
              <mxPoint x="346.1600000000001" y="-8" />
              <mxPoint x="-43.83999999999992" y="-8" />
              <mxPoint x="-43.83999999999992" y="173" />
            </Array>
          </mxGeometry>
        </mxCell>
        <mxCell id="0JMGet9Vj3v4Qi80jiQD-44" value="15:11" style="text;html=1;align=center;verticalAlign=middle;whiteSpace=wrap;rounded=0;" parent="ae_eKECDKsGE9r01VdnN-3" vertex="1">
          <mxGeometry x="372.00000000000006" y="248" width="60" height="30" as="geometry" />
        </mxCell>
        <mxCell id="ae_eKECDKsGE9r01VdnN-27" value="" style="group" parent="1" vertex="1" connectable="0">
          <mxGeometry x="27.00000000000003" y="410" width="232" height="184" as="geometry" />
        </mxCell>
        <mxCell id="ae_eKECDKsGE9r01VdnN-28" value="" style="group" parent="ae_eKECDKsGE9r01VdnN-27" vertex="1" connectable="0">
          <mxGeometry y="34" width="232" height="150" as="geometry" />
        </mxCell>
        <mxCell id="ae_eKECDKsGE9r01VdnN-29" value="Register File" style="rounded=0;whiteSpace=wrap;html=1;fontStyle=1" parent="ae_eKECDKsGE9r01VdnN-28" vertex="1">
          <mxGeometry x="63" y="10" width="120" height="140" as="geometry" />
        </mxCell>
        <mxCell id="ae_eKECDKsGE9r01VdnN-30" value="" style="group" parent="ae_eKECDKsGE9r01VdnN-28" vertex="1" connectable="0">
          <mxGeometry x="13" y="20" width="48" height="20" as="geometry" />
        </mxCell>
        <mxCell id="ae_eKECDKsGE9r01VdnN-31" value="" style="html=1;shadow=0;dashed=0;align=center;verticalAlign=middle;shape=mxgraph.arrows2.arrow;dy=0.67;dx=24.67;notch=0;movable=1;resizable=1;rotatable=1;deletable=1;editable=1;locked=0;connectable=1;fontStyle=1" parent="ae_eKECDKsGE9r01VdnN-30" vertex="1">
          <mxGeometry y="4" width="48" height="10" as="geometry" />
        </mxCell>
        <mxCell id="ae_eKECDKsGE9r01VdnN-32" value="" style="endArrow=none;html=1;rounded=0;" parent="ae_eKECDKsGE9r01VdnN-30" edge="1">
          <mxGeometry width="50" height="50" relative="1" as="geometry">
            <mxPoint x="8" y="20" as="sourcePoint" />
            <mxPoint x="18" as="targetPoint" />
          </mxGeometry>
        </mxCell>
        <mxCell id="ae_eKECDKsGE9r01VdnN-33" value="" style="group" parent="ae_eKECDKsGE9r01VdnN-28" vertex="1" connectable="0">
          <mxGeometry x="13" y="52" width="48" height="20" as="geometry" />
        </mxCell>
        <mxCell id="ae_eKECDKsGE9r01VdnN-34" value="" style="html=1;shadow=0;dashed=0;align=center;verticalAlign=middle;shape=mxgraph.arrows2.arrow;dy=0.67;dx=24.67;notch=0;movable=1;resizable=1;rotatable=1;deletable=1;editable=1;locked=0;connectable=1;fontStyle=1" parent="ae_eKECDKsGE9r01VdnN-33" vertex="1">
          <mxGeometry y="4" width="48" height="10" as="geometry" />
        </mxCell>
        <mxCell id="ae_eKECDKsGE9r01VdnN-35" value="" style="endArrow=none;html=1;rounded=0;" parent="ae_eKECDKsGE9r01VdnN-33" edge="1">
          <mxGeometry width="50" height="50" relative="1" as="geometry">
            <mxPoint x="8" y="20" as="sourcePoint" />
            <mxPoint x="18" as="targetPoint" />
          </mxGeometry>
        </mxCell>
        <mxCell id="ae_eKECDKsGE9r01VdnN-36" value="" style="group" parent="ae_eKECDKsGE9r01VdnN-28" vertex="1" connectable="0">
          <mxGeometry x="13" y="95" width="48" height="20" as="geometry" />
        </mxCell>
        <mxCell id="ae_eKECDKsGE9r01VdnN-37" value="" style="html=1;shadow=0;dashed=0;align=center;verticalAlign=middle;shape=mxgraph.arrows2.arrow;dy=0.67;dx=24.67;notch=0;movable=1;resizable=1;rotatable=1;deletable=1;editable=1;locked=0;connectable=1;fontStyle=1" parent="ae_eKECDKsGE9r01VdnN-36" vertex="1">
          <mxGeometry y="1" width="48" height="10" as="geometry" />
        </mxCell>
        <mxCell id="ae_eKECDKsGE9r01VdnN-38" value="" style="endArrow=none;html=1;rounded=0;" parent="ae_eKECDKsGE9r01VdnN-36" edge="1">
          <mxGeometry width="50" height="50" relative="1" as="geometry">
            <mxPoint x="8" y="20" as="sourcePoint" />
            <mxPoint x="18" as="targetPoint" />
          </mxGeometry>
        </mxCell>
        <mxCell id="ae_eKECDKsGE9r01VdnN-39" value="" style="group" parent="ae_eKECDKsGE9r01VdnN-28" vertex="1" connectable="0">
          <mxGeometry x="12" y="122" width="48" height="20" as="geometry" />
        </mxCell>
        <mxCell id="ae_eKECDKsGE9r01VdnN-40" value="" style="html=1;shadow=0;dashed=0;align=center;verticalAlign=middle;shape=mxgraph.arrows2.arrow;dy=0.67;dx=24.67;notch=0;movable=1;resizable=1;rotatable=1;deletable=1;editable=1;locked=0;connectable=1;fontStyle=1" parent="ae_eKECDKsGE9r01VdnN-39" vertex="1">
          <mxGeometry y="4" width="48" height="10" as="geometry" />
        </mxCell>
        <mxCell id="ae_eKECDKsGE9r01VdnN-41" value="" style="endArrow=none;html=1;rounded=0;" parent="ae_eKECDKsGE9r01VdnN-39" edge="1">
          <mxGeometry width="50" height="50" relative="1" as="geometry">
            <mxPoint x="8" y="20" as="sourcePoint" />
            <mxPoint x="18" as="targetPoint" />
          </mxGeometry>
        </mxCell>
        <mxCell id="ae_eKECDKsGE9r01VdnN-42" value="" style="group" parent="ae_eKECDKsGE9r01VdnN-28" vertex="1" connectable="0">
          <mxGeometry x="183" y="39" width="48" height="20" as="geometry" />
        </mxCell>
        <mxCell id="ae_eKECDKsGE9r01VdnN-43" value="" style="html=1;shadow=0;dashed=0;align=center;verticalAlign=middle;shape=mxgraph.arrows2.arrow;dy=0.67;dx=24.67;notch=0;movable=1;resizable=1;rotatable=1;deletable=1;editable=1;locked=0;connectable=1;fontStyle=1" parent="ae_eKECDKsGE9r01VdnN-42" vertex="1">
          <mxGeometry y="4" width="48" height="10" as="geometry" />
        </mxCell>
        <mxCell id="ae_eKECDKsGE9r01VdnN-44" value="" style="endArrow=none;html=1;rounded=0;" parent="ae_eKECDKsGE9r01VdnN-42" edge="1">
          <mxGeometry width="50" height="50" relative="1" as="geometry">
            <mxPoint x="8" y="20" as="sourcePoint" />
            <mxPoint x="18" as="targetPoint" />
          </mxGeometry>
        </mxCell>
        <mxCell id="ae_eKECDKsGE9r01VdnN-45" value="" style="group" parent="ae_eKECDKsGE9r01VdnN-28" vertex="1" connectable="0">
          <mxGeometry x="183" y="96" width="48" height="20" as="geometry" />
        </mxCell>
        <mxCell id="ae_eKECDKsGE9r01VdnN-46" value="" style="html=1;shadow=0;dashed=0;align=center;verticalAlign=middle;shape=mxgraph.arrows2.arrow;dy=0.67;dx=24.67;notch=0;movable=1;resizable=1;rotatable=1;deletable=1;editable=1;locked=0;connectable=1;fontStyle=1" parent="ae_eKECDKsGE9r01VdnN-45" vertex="1">
          <mxGeometry y="4" width="48" height="10" as="geometry" />
        </mxCell>
        <mxCell id="ae_eKECDKsGE9r01VdnN-47" value="" style="endArrow=none;html=1;rounded=0;" parent="ae_eKECDKsGE9r01VdnN-45" edge="1">
          <mxGeometry width="50" height="50" relative="1" as="geometry">
            <mxPoint x="8" y="20" as="sourcePoint" />
            <mxPoint x="18" as="targetPoint" />
          </mxGeometry>
        </mxCell>
        <mxCell id="ae_eKECDKsGE9r01VdnN-48" value="5" style="text;html=1;align=center;verticalAlign=middle;whiteSpace=wrap;rounded=0;fontFamily=Helvetica;fontSize=12;fontColor=default;" parent="ae_eKECDKsGE9r01VdnN-28" vertex="1">
          <mxGeometry width="60" height="30" as="geometry" />
        </mxCell>
        <mxCell id="ae_eKECDKsGE9r01VdnN-49" value="5" style="text;html=1;align=center;verticalAlign=middle;whiteSpace=wrap;rounded=0;fontFamily=Helvetica;fontSize=12;fontColor=default;" parent="ae_eKECDKsGE9r01VdnN-28" vertex="1">
          <mxGeometry y="32" width="60" height="30" as="geometry" />
        </mxCell>
        <mxCell id="ae_eKECDKsGE9r01VdnN-50" value="5" style="text;html=1;align=center;verticalAlign=middle;whiteSpace=wrap;rounded=0;fontFamily=Helvetica;fontSize=12;fontColor=default;" parent="ae_eKECDKsGE9r01VdnN-28" vertex="1">
          <mxGeometry y="74" width="60" height="30" as="geometry" />
        </mxCell>
        <mxCell id="ae_eKECDKsGE9r01VdnN-51" value="32" style="text;html=1;align=center;verticalAlign=middle;whiteSpace=wrap;rounded=0;fontFamily=Helvetica;fontSize=12;fontColor=default;" parent="ae_eKECDKsGE9r01VdnN-28" vertex="1">
          <mxGeometry x="1" y="102" width="60" height="30" as="geometry" />
        </mxCell>
        <mxCell id="ae_eKECDKsGE9r01VdnN-52" value="32" style="text;html=1;align=center;verticalAlign=middle;whiteSpace=wrap;rounded=0;fontFamily=Helvetica;fontSize=12;fontColor=default;" parent="ae_eKECDKsGE9r01VdnN-28" vertex="1">
          <mxGeometry x="172" y="20" width="60" height="30" as="geometry" />
        </mxCell>
        <mxCell id="ae_eKECDKsGE9r01VdnN-53" value="32" style="text;html=1;align=center;verticalAlign=middle;whiteSpace=wrap;rounded=0;fontFamily=Helvetica;fontSize=12;fontColor=default;" parent="ae_eKECDKsGE9r01VdnN-28" vertex="1">
          <mxGeometry x="172" y="76" width="60" height="30" as="geometry" />
        </mxCell>
        <mxCell id="ae_eKECDKsGE9r01VdnN-54" value="&lt;font style=&quot;font-size: 8px;&quot;&gt;Read register&lt;/font&gt;" style="text;html=1;align=center;verticalAlign=middle;whiteSpace=wrap;rounded=0;fontFamily=Helvetica;fontSize=12;fontColor=default;" parent="ae_eKECDKsGE9r01VdnN-28" vertex="1">
          <mxGeometry x="60" y="9" width="60" height="30" as="geometry" />
        </mxCell>
        <mxCell id="ae_eKECDKsGE9r01VdnN-55" value="&lt;font style=&quot;font-size: 8px;&quot;&gt;Read register&lt;/font&gt;" style="text;html=1;align=center;verticalAlign=middle;whiteSpace=wrap;rounded=0;fontFamily=Helvetica;fontSize=12;fontColor=default;" parent="ae_eKECDKsGE9r01VdnN-28" vertex="1">
          <mxGeometry x="61" y="40" width="60" height="30" as="geometry" />
        </mxCell>
        <mxCell id="ae_eKECDKsGE9r01VdnN-56" value="&lt;font style=&quot;font-size: 8px;&quot;&gt;Write register&lt;/font&gt;" style="text;html=1;align=center;verticalAlign=middle;whiteSpace=wrap;rounded=0;fontFamily=Helvetica;fontSize=12;fontColor=default;" parent="ae_eKECDKsGE9r01VdnN-28" vertex="1">
          <mxGeometry x="61" y="84" width="60" height="30" as="geometry" />
        </mxCell>
        <mxCell id="ae_eKECDKsGE9r01VdnN-57" value="&lt;font style=&quot;font-size: 8px;&quot;&gt;Write data&lt;/font&gt;" style="text;html=1;align=center;verticalAlign=middle;whiteSpace=wrap;rounded=0;fontFamily=Helvetica;fontSize=12;fontColor=default;" parent="ae_eKECDKsGE9r01VdnN-28" vertex="1">
          <mxGeometry x="54" y="112" width="60" height="30" as="geometry" />
        </mxCell>
        <mxCell id="ae_eKECDKsGE9r01VdnN-58" value="&lt;font style=&quot;font-size: 8px;&quot;&gt;Number 1&lt;/font&gt;" style="text;html=1;align=center;verticalAlign=middle;whiteSpace=wrap;rounded=0;fontFamily=Helvetica;fontSize=12;fontColor=default;" parent="ae_eKECDKsGE9r01VdnN-28" vertex="1">
          <mxGeometry x="54" y="17" width="60" height="30" as="geometry" />
        </mxCell>
        <mxCell id="ae_eKECDKsGE9r01VdnN-59" value="&lt;span style=&quot;font-size: 8px;&quot;&gt;Number 2&lt;/span&gt;" style="text;html=1;align=center;verticalAlign=middle;whiteSpace=wrap;rounded=0;" parent="ae_eKECDKsGE9r01VdnN-28" vertex="1">
          <mxGeometry x="55" y="48" width="60" height="30" as="geometry" />
        </mxCell>
        <mxCell id="ae_eKECDKsGE9r01VdnN-60" value="&lt;span style=&quot;font-size: 8px;&quot;&gt;Read Data 1&lt;/span&gt;" style="text;html=1;align=center;verticalAlign=middle;whiteSpace=wrap;rounded=0;" parent="ae_eKECDKsGE9r01VdnN-28" vertex="1">
          <mxGeometry x="130" y="32" width="60" height="30" as="geometry" />
        </mxCell>
        <mxCell id="ae_eKECDKsGE9r01VdnN-61" value="&lt;font style=&quot;font-size: 8px;&quot;&gt;Read Data 2&lt;/font&gt;" style="text;html=1;align=center;verticalAlign=middle;whiteSpace=wrap;rounded=0;" parent="ae_eKECDKsGE9r01VdnN-28" vertex="1">
          <mxGeometry x="129" y="88" width="60" height="30" as="geometry" />
        </mxCell>
        <mxCell id="ae_eKECDKsGE9r01VdnN-62" value="&lt;font style=&quot;font-size: 8px;&quot;&gt;RegWrite&lt;/font&gt;" style="text;html=1;align=center;verticalAlign=middle;whiteSpace=wrap;rounded=0;" parent="ae_eKECDKsGE9r01VdnN-28" vertex="1">
          <mxGeometry x="93" y="-1" width="60" height="30" as="geometry" />
        </mxCell>
        <mxCell id="ae_eKECDKsGE9r01VdnN-63" value="25:21" style="text;html=1;align=center;verticalAlign=middle;whiteSpace=wrap;rounded=0;" parent="ae_eKECDKsGE9r01VdnN-28" vertex="1">
          <mxGeometry x="-37" y="8" width="60" height="30" as="geometry" />
        </mxCell>
        <mxCell id="ae_eKECDKsGE9r01VdnN-64" value="20:16" style="text;html=1;align=center;verticalAlign=middle;whiteSpace=wrap;rounded=0;" parent="ae_eKECDKsGE9r01VdnN-28" vertex="1">
          <mxGeometry x="-37" y="40" width="60" height="30" as="geometry" />
        </mxCell>
        <mxCell id="ae_eKECDKsGE9r01VdnN-65" value="" style="group;rotation=-90;" parent="ae_eKECDKsGE9r01VdnN-27" vertex="1" connectable="0">
          <mxGeometry x="100" y="9" width="48" height="30" as="geometry" />
        </mxCell>
        <mxCell id="ae_eKECDKsGE9r01VdnN-66" value="" style="html=1;shadow=0;dashed=0;align=center;verticalAlign=middle;shape=mxgraph.arrows2.arrow;dy=0.67;dx=24.67;notch=0;movable=1;resizable=1;rotatable=1;deletable=1;editable=1;locked=0;connectable=1;fontStyle=1;rotation=90;" parent="ae_eKECDKsGE9r01VdnN-65" vertex="1">
          <mxGeometry x="-1" y="4" width="48" height="10" as="geometry" />
        </mxCell>
        <mxCell id="ae_eKECDKsGE9r01VdnN-67" value="" style="endArrow=none;html=1;rounded=0;" parent="ae_eKECDKsGE9r01VdnN-65" edge="1">
          <mxGeometry width="50" height="50" relative="1" as="geometry">
            <mxPoint x="34" y="4" as="sourcePoint" />
            <mxPoint x="14" y="-6" as="targetPoint" />
          </mxGeometry>
        </mxCell>
        <mxCell id="ae_eKECDKsGE9r01VdnN-68" value="1" style="text;html=1;align=center;verticalAlign=middle;whiteSpace=wrap;rounded=0;" parent="ae_eKECDKsGE9r01VdnN-65" vertex="1">
          <mxGeometry x="-20" y="-21" width="60" height="30" as="geometry" />
        </mxCell>
        <mxCell id="ae_eKECDKsGE9r01VdnN-69" value="" style="group" parent="1" vertex="1" connectable="0">
          <mxGeometry x="516.1600000000001" y="387" width="230" height="250" as="geometry" />
        </mxCell>
        <mxCell id="ae_eKECDKsGE9r01VdnN-70" value="Data Memory" style="rounded=0;whiteSpace=wrap;html=1;fontStyle=1" parent="ae_eKECDKsGE9r01VdnN-69" vertex="1">
          <mxGeometry x="125.84" y="59" width="120" height="140" as="geometry" />
        </mxCell>
        <mxCell id="ae_eKECDKsGE9r01VdnN-71" value="Address" style="text;html=1;align=center;verticalAlign=middle;whiteSpace=wrap;rounded=0;" parent="ae_eKECDKsGE9r01VdnN-69" vertex="1">
          <mxGeometry x="122.84" y="75" width="60" height="30" as="geometry" />
        </mxCell>
        <mxCell id="ae_eKECDKsGE9r01VdnN-72" value="Write Data" style="text;html=1;align=center;verticalAlign=middle;whiteSpace=wrap;rounded=0;" parent="ae_eKECDKsGE9r01VdnN-69" vertex="1">
          <mxGeometry x="128.84" y="136" width="60" height="30" as="geometry" />
        </mxCell>
        <mxCell id="ae_eKECDKsGE9r01VdnN-73" value="Read Data" style="text;html=1;align=center;verticalAlign=middle;whiteSpace=wrap;rounded=0;" parent="ae_eKECDKsGE9r01VdnN-69" vertex="1">
          <mxGeometry x="184.84" y="75" width="60" height="30" as="geometry" />
        </mxCell>
        <mxCell id="ae_eKECDKsGE9r01VdnN-74" value="Mem Read" style="text;html=1;align=center;verticalAlign=middle;whiteSpace=wrap;rounded=0;" parent="ae_eKECDKsGE9r01VdnN-69" vertex="1">
          <mxGeometry x="186.84" y="29" width="70" height="30" as="geometry" />
        </mxCell>
        <mxCell id="ae_eKECDKsGE9r01VdnN-75" value="Mem Write" style="text;html=1;align=center;verticalAlign=middle;whiteSpace=wrap;rounded=0;" parent="ae_eKECDKsGE9r01VdnN-69" vertex="1">
          <mxGeometry x="191.84" y="198" width="70" height="30" as="geometry" />
        </mxCell>
        <mxCell id="ae_eKECDKsGE9r01VdnN-76" value="" style="group" parent="ae_eKECDKsGE9r01VdnN-69" vertex="1" connectable="0">
          <mxGeometry x="75.84" y="142" width="48" height="20" as="geometry" />
        </mxCell>
        <mxCell id="ae_eKECDKsGE9r01VdnN-77" value="" style="html=1;shadow=0;dashed=0;align=center;verticalAlign=middle;shape=mxgraph.arrows2.arrow;dy=0.67;dx=24.67;notch=0;movable=1;resizable=1;rotatable=1;deletable=1;editable=1;locked=0;connectable=1;fontStyle=1" parent="ae_eKECDKsGE9r01VdnN-76" vertex="1">
          <mxGeometry y="4" width="48" height="10" as="geometry" />
        </mxCell>
        <mxCell id="ae_eKECDKsGE9r01VdnN-78" value="" style="endArrow=none;html=1;rounded=0;" parent="ae_eKECDKsGE9r01VdnN-76" edge="1">
          <mxGeometry width="50" height="50" relative="1" as="geometry">
            <mxPoint x="8" y="20" as="sourcePoint" />
            <mxPoint x="18" as="targetPoint" />
          </mxGeometry>
        </mxCell>
        <mxCell id="ae_eKECDKsGE9r01VdnN-79" value="" style="group" parent="ae_eKECDKsGE9r01VdnN-69" vertex="1" connectable="0">
          <mxGeometry x="75.84" y="82" width="48" height="20" as="geometry" />
        </mxCell>
        <mxCell id="ae_eKECDKsGE9r01VdnN-80" value="" style="html=1;shadow=0;dashed=0;align=center;verticalAlign=middle;shape=mxgraph.arrows2.arrow;dy=0.67;dx=24.67;notch=0;movable=1;resizable=1;rotatable=1;deletable=1;editable=1;locked=0;connectable=1;fontStyle=1" parent="ae_eKECDKsGE9r01VdnN-79" vertex="1">
          <mxGeometry y="4" width="48" height="10" as="geometry" />
        </mxCell>
        <mxCell id="ae_eKECDKsGE9r01VdnN-81" value="" style="endArrow=none;html=1;rounded=0;" parent="ae_eKECDKsGE9r01VdnN-79" edge="1">
          <mxGeometry width="50" height="50" relative="1" as="geometry">
            <mxPoint x="8" y="20" as="sourcePoint" />
            <mxPoint x="18" as="targetPoint" />
          </mxGeometry>
        </mxCell>
        <mxCell id="ae_eKECDKsGE9r01VdnN-82" value="" style="group" parent="ae_eKECDKsGE9r01VdnN-69" vertex="1" connectable="0">
          <mxGeometry x="245.84" y="82" width="48" height="20" as="geometry" />
        </mxCell>
        <mxCell id="ae_eKECDKsGE9r01VdnN-83" value="" style="html=1;shadow=0;dashed=0;align=center;verticalAlign=middle;shape=mxgraph.arrows2.arrow;dy=0.67;dx=24.67;notch=0;movable=1;resizable=1;rotatable=1;deletable=1;editable=1;locked=0;connectable=1;fontStyle=1" parent="ae_eKECDKsGE9r01VdnN-82" vertex="1">
          <mxGeometry y="4" width="48" height="10" as="geometry" />
        </mxCell>
        <mxCell id="ae_eKECDKsGE9r01VdnN-84" value="" style="endArrow=none;html=1;rounded=0;" parent="ae_eKECDKsGE9r01VdnN-82" edge="1">
          <mxGeometry width="50" height="50" relative="1" as="geometry">
            <mxPoint x="8" y="20" as="sourcePoint" />
            <mxPoint x="18" as="targetPoint" />
          </mxGeometry>
        </mxCell>
        <mxCell id="ae_eKECDKsGE9r01VdnN-85" value="" style="group;rotation=-90;" parent="ae_eKECDKsGE9r01VdnN-69" vertex="1" connectable="0">
          <mxGeometry x="163.84" y="216" width="48" height="20" as="geometry" />
        </mxCell>
        <mxCell id="ae_eKECDKsGE9r01VdnN-86" value="" style="html=1;shadow=0;dashed=0;align=center;verticalAlign=middle;shape=mxgraph.arrows2.arrow;dy=0.67;dx=24.67;notch=0;movable=1;resizable=1;rotatable=1;deletable=1;editable=1;locked=0;connectable=1;fontStyle=1;rotation=-90;" parent="ae_eKECDKsGE9r01VdnN-85" vertex="1">
          <mxGeometry x="-1" y="5" width="48" height="10" as="geometry" />
        </mxCell>
        <mxCell id="ae_eKECDKsGE9r01VdnN-87" value="" style="endArrow=none;html=1;rounded=0;" parent="ae_eKECDKsGE9r01VdnN-85" edge="1">
          <mxGeometry width="50" height="50" relative="1" as="geometry">
            <mxPoint x="34" y="26" as="sourcePoint" />
            <mxPoint x="14" y="16" as="targetPoint" />
          </mxGeometry>
        </mxCell>
        <mxCell id="ae_eKECDKsGE9r01VdnN-88" value="" style="group;rotation=90;" parent="ae_eKECDKsGE9r01VdnN-69" vertex="1" connectable="0">
          <mxGeometry x="161.84" y="21" width="48" height="20" as="geometry" />
        </mxCell>
        <mxCell id="ae_eKECDKsGE9r01VdnN-89" value="" style="html=1;shadow=0;dashed=0;align=center;verticalAlign=middle;shape=mxgraph.arrows2.arrow;dy=0.67;dx=24.67;notch=0;movable=1;resizable=1;rotatable=1;deletable=1;editable=1;locked=0;connectable=1;fontStyle=1;rotation=90;" parent="ae_eKECDKsGE9r01VdnN-88" vertex="1">
          <mxGeometry x="1" y="5" width="48" height="10" as="geometry" />
        </mxCell>
        <mxCell id="ae_eKECDKsGE9r01VdnN-90" value="" style="endArrow=none;html=1;rounded=0;" parent="ae_eKECDKsGE9r01VdnN-88" edge="1">
          <mxGeometry width="50" height="50" relative="1" as="geometry">
            <mxPoint x="14" y="-6" as="sourcePoint" />
            <mxPoint x="34" y="4" as="targetPoint" />
          </mxGeometry>
        </mxCell>
        <mxCell id="ae_eKECDKsGE9r01VdnN-91" value="32" style="text;html=1;align=center;verticalAlign=middle;whiteSpace=wrap;rounded=0;" parent="ae_eKECDKsGE9r01VdnN-69" vertex="1">
          <mxGeometry x="233.84" y="61" width="60" height="30" as="geometry" />
        </mxCell>
        <mxCell id="ae_eKECDKsGE9r01VdnN-92" value="32" style="text;html=1;align=center;verticalAlign=middle;whiteSpace=wrap;rounded=0;" parent="ae_eKECDKsGE9r01VdnN-69" vertex="1">
          <mxGeometry x="63.84" y="121" width="60" height="30" as="geometry" />
        </mxCell>
        <mxCell id="ae_eKECDKsGE9r01VdnN-93" value="32" style="text;html=1;align=center;verticalAlign=middle;whiteSpace=wrap;rounded=0;" parent="ae_eKECDKsGE9r01VdnN-69" vertex="1">
          <mxGeometry x="63.84" y="62" width="60" height="30" as="geometry" />
        </mxCell>
        <mxCell id="ae_eKECDKsGE9r01VdnN-94" value="1" style="text;html=1;align=center;verticalAlign=middle;whiteSpace=wrap;rounded=0;" parent="ae_eKECDKsGE9r01VdnN-69" vertex="1">
          <mxGeometry x="142.56" width="60" height="30" as="geometry" />
        </mxCell>
        <mxCell id="ae_eKECDKsGE9r01VdnN-95" value="1" style="text;html=1;align=center;verticalAlign=middle;whiteSpace=wrap;rounded=0;" parent="ae_eKECDKsGE9r01VdnN-69" vertex="1">
          <mxGeometry x="142.56" y="215" width="60" height="30" as="geometry" />
        </mxCell>
        <mxCell id="ae_eKECDKsGE9r01VdnN-96" value="" style="group" parent="1" vertex="1" connectable="0">
          <mxGeometry x="359" y="400" width="200" height="211" as="geometry" />
        </mxCell>
        <mxCell id="ae_eKECDKsGE9r01VdnN-97" value="" style="group" parent="ae_eKECDKsGE9r01VdnN-96" vertex="1" connectable="0">
          <mxGeometry x="6.8181818181818175" y="15" width="181.8181818181818" height="196" as="geometry" />
        </mxCell>
        <mxCell id="ae_eKECDKsGE9r01VdnN-98" value="" style="endArrow=none;html=1;rounded=0;" parent="ae_eKECDKsGE9r01VdnN-97" edge="1">
          <mxGeometry width="50" height="50" relative="1" as="geometry">
            <mxPoint x="92.18950064020487" y="98" as="sourcePoint" />
            <mxPoint x="92.18950064020487" y="98" as="targetPoint" />
            <Array as="points">
              <mxPoint x="66.58130601792571" y="114.33333333333334" />
              <mxPoint x="66.58130601792571" y="196" />
              <mxPoint x="117.79769526248398" y="130.66666666666669" />
              <mxPoint x="117.79769526248398" y="65.33333333333334" />
              <mxPoint x="66.58130601792571" />
              <mxPoint x="66.58130601792571" y="81.66666666666667" />
            </Array>
          </mxGeometry>
        </mxCell>
        <mxCell id="ae_eKECDKsGE9r01VdnN-99" value="" style="group" parent="ae_eKECDKsGE9r01VdnN-97" vertex="1" connectable="0">
          <mxGeometry y="40.833333333333336" width="181.8181818181818" height="120.86666666666666" as="geometry" />
        </mxCell>
        <mxCell id="ae_eKECDKsGE9r01VdnN-100" value="" style="html=1;shadow=0;dashed=0;align=center;verticalAlign=middle;shape=mxgraph.arrows2.arrow;dy=0.67;dx=20;notch=0;movable=1;resizable=1;rotatable=1;deletable=1;editable=1;locked=0;connectable=1;" parent="ae_eKECDKsGE9r01VdnN-99" vertex="1">
          <mxGeometry width="64.02048655569781" height="16.333333333333336" as="geometry" />
        </mxCell>
        <mxCell id="ae_eKECDKsGE9r01VdnN-101" value="" style="html=1;shadow=0;dashed=0;align=center;verticalAlign=middle;shape=mxgraph.arrows2.arrow;dy=0.67;dx=20;notch=0;movable=1;resizable=1;rotatable=1;deletable=1;editable=1;locked=0;connectable=1;" parent="ae_eKECDKsGE9r01VdnN-99" vertex="1">
          <mxGeometry y="104.53333333333335" width="64.02048655569781" height="16.333333333333336" as="geometry" />
        </mxCell>
        <mxCell id="ae_eKECDKsGE9r01VdnN-102" value="" style="html=1;shadow=0;dashed=0;align=center;verticalAlign=middle;shape=mxgraph.arrows2.arrow;dy=0.67;dx=20;notch=0;movable=1;resizable=1;rotatable=1;deletable=1;editable=1;locked=0;connectable=1;" parent="ae_eKECDKsGE9r01VdnN-99" vertex="1">
          <mxGeometry x="117.79769526248398" y="52.26666666666667" width="64.02048655569781" height="16.333333333333336" as="geometry" />
        </mxCell>
        <mxCell id="ae_eKECDKsGE9r01VdnN-103" value="&lt;font style=&quot;font-size: 8px;&quot;&gt;Zero&lt;/font&gt;" style="text;html=1;align=center;verticalAlign=middle;whiteSpace=wrap;rounded=0;" parent="ae_eKECDKsGE9r01VdnN-99" vertex="1">
          <mxGeometry x="72.72727272727273" y="21.26666666666671" width="68.18181818181819" height="30" as="geometry" />
        </mxCell>
        <mxCell id="ae_eKECDKsGE9r01VdnN-104" value="32" style="text;html=1;align=center;verticalAlign=middle;whiteSpace=wrap;rounded=0;" parent="ae_eKECDKsGE9r01VdnN-99" vertex="1">
          <mxGeometry x="101.13636363636364" y="60.166666666666686" width="68.18181818181819" height="30" as="geometry" />
        </mxCell>
        <mxCell id="ae_eKECDKsGE9r01VdnN-105" value="Res" style="text;html=1;align=center;verticalAlign=middle;whiteSpace=wrap;rounded=0;" parent="ae_eKECDKsGE9r01VdnN-99" vertex="1">
          <mxGeometry x="70.45454545454545" y="45.43666666666667" width="68.18181818181819" height="30" as="geometry" />
        </mxCell>
        <mxCell id="ae_eKECDKsGE9r01VdnN-106" value="32" style="text;html=1;align=center;verticalAlign=middle;whiteSpace=wrap;rounded=0;" parent="ae_eKECDKsGE9r01VdnN-97" vertex="1">
          <mxGeometry x="-6.8181818181818175" y="17.829999999999984" width="68.18181818181819" height="30" as="geometry" />
        </mxCell>
        <mxCell id="ae_eKECDKsGE9r01VdnN-107" value="" style="endArrow=classic;html=1;rounded=0;" parent="ae_eKECDKsGE9r01VdnN-96" edge="1">
          <mxGeometry width="50" height="50" relative="1" as="geometry">
            <mxPoint x="125" y="95" as="sourcePoint" />
            <mxPoint x="147.72727272727272" y="95" as="targetPoint" />
          </mxGeometry>
        </mxCell>
        <mxCell id="ae_eKECDKsGE9r01VdnN-108" value="" style="endArrow=none;html=1;rounded=0;" parent="ae_eKECDKsGE9r01VdnN-96" edge="1">
          <mxGeometry width="50" height="50" relative="1" as="geometry">
            <mxPoint x="22.727272727272727" y="75" as="sourcePoint" />
            <mxPoint x="34.09090909090909" y="55" as="targetPoint" />
          </mxGeometry>
        </mxCell>
        <mxCell id="ae_eKECDKsGE9r01VdnN-109" value="" style="endArrow=none;html=1;rounded=0;" parent="ae_eKECDKsGE9r01VdnN-96" edge="1">
          <mxGeometry width="50" height="50" relative="1" as="geometry">
            <mxPoint x="142.04545454545453" y="126" as="sourcePoint" />
            <mxPoint x="153.4090909090909" y="106" as="targetPoint" />
          </mxGeometry>
        </mxCell>
        <mxCell id="ae_eKECDKsGE9r01VdnN-110" value="" style="endArrow=none;html=1;rounded=0;" parent="ae_eKECDKsGE9r01VdnN-96" edge="1">
          <mxGeometry width="50" height="50" relative="1" as="geometry">
            <mxPoint x="22.727272727272727" y="180" as="sourcePoint" />
            <mxPoint x="34.09090909090909" y="160" as="targetPoint" />
          </mxGeometry>
        </mxCell>
        <mxCell id="ae_eKECDKsGE9r01VdnN-111" value="" style="group;rotation=-90;" parent="ae_eKECDKsGE9r01VdnN-96" vertex="1" connectable="0">
          <mxGeometry x="71.5909090909091" y="11" width="54.54545454545454" height="30" as="geometry" />
        </mxCell>
        <mxCell id="ae_eKECDKsGE9r01VdnN-112" value="" style="html=1;shadow=0;dashed=0;align=center;verticalAlign=middle;shape=mxgraph.arrows2.arrow;dy=0.67;dx=24.67;notch=0;movable=1;resizable=1;rotatable=1;deletable=1;editable=1;locked=0;connectable=1;fontStyle=1;rotation=90;" parent="ae_eKECDKsGE9r01VdnN-111" vertex="1">
          <mxGeometry x="-0.13636363636363624" y="4" width="54.54545454545454" height="10" as="geometry" />
        </mxCell>
        <mxCell id="ae_eKECDKsGE9r01VdnN-113" value="" style="endArrow=none;html=1;rounded=0;" parent="ae_eKECDKsGE9r01VdnN-111" edge="1">
          <mxGeometry width="50" height="50" relative="1" as="geometry">
            <mxPoint x="38.63636363636363" y="4" as="sourcePoint" />
            <mxPoint x="15.909090909090908" y="-6" as="targetPoint" />
          </mxGeometry>
        </mxCell>
        <mxCell id="ae_eKECDKsGE9r01VdnN-114" value="3&lt;span style=&quot;color: rgba(0, 0, 0, 0); font-family: monospace; font-size: 0px; text-align: start; text-wrap-mode: nowrap;&quot;&gt;%3CmxGraphModel%3E%3Croot%3E%3CmxCell%20id%3D%220%22%2F%3E%3CmxCell%20id%3D%221%22%20parent%3D%220%22%2F%3E%3CmxCell%20id%3D%222%22%20value%3D%22%22%20style%3D%22group%3Brotation%3D-90%3B%22%20vertex%3D%221%22%20connectable%3D%220%22%20parent%3D%221%22%3E%3CmxGeometry%20x%3D%22881%22%20y%3D%22398%22%20width%3D%2248%22%20height%3D%2230%22%20as%3D%22geometry%22%2F%3E%3C%2FmxCell%3E%3CmxCell%20id%3D%223%22%20value%3D%22%22%20style%3D%22html%3D1%3Bshadow%3D0%3Bdashed%3D0%3Balign%3Dcenter%3BverticalAlign%3Dmiddle%3Bshape%3Dmxgraph.arrows2.arrow%3Bdy%3D0.67%3Bdx%3D24.67%3Bnotch%3D0%3Bmovable%3D1%3Bresizable%3D1%3Brotatable%3D1%3Bdeletable%3D1%3Beditable%3D1%3Blocked%3D0%3Bconnectable%3D1%3BfontStyle%3D1%3Brotation%3D90%3B%22%20vertex%3D%221%22%20parent%3D%222%22%3E%3CmxGeometry%20x%3D%22-1%22%20y%3D%224%22%20width%3D%2248%22%20height%3D%2210%22%20as%3D%22geometry%22%2F%3E%3C%2FmxCell%3E%3CmxCell%20id%3D%224%22%20value%3D%22%22%20style%3D%22endArrow%3Dnone%3Bhtml%3D1%3Brounded%3D0%3B%22%20edge%3D%221%22%20parent%3D%222%22%3E%3CmxGeometry%20width%3D%2250%22%20height%3D%2250%22%20relative%3D%221%22%20as%3D%22geometry%22%3E%3CmxPoint%20x%3D%2234%22%20y%3D%224%22%20as%3D%22sourcePoint%22%2F%3E%3CmxPoint%20x%3D%2214%22%20y%3D%22-6%22%20as%3D%22targetPoint%22%2F%3E%3C%2FmxGeometry%3E%3C%2FmxCell%3E%3CmxCell%20id%3D%225%22%20value%3D%221%22%20style%3D%22text%3Bhtml%3D1%3Balign%3Dcenter%3BverticalAlign%3Dmiddle%3BwhiteSpace%3Dwrap%3Brounded%3D0%3B%22%20vertex%3D%221%22%20parent%3D%222%22%3E%3CmxGeometry%20x%3D%22-20%22%20y%3D%22-21%22%20width%3D%2260%22%20height%3D%2230%22%20as%3D%22geometry%22%2F%3E%3C%2FmxCell%3E%3C%2Froot%3E%3C%2FmxGraphModel%3E&lt;/span&gt;" style="text;html=1;align=center;verticalAlign=middle;whiteSpace=wrap;rounded=0;" parent="ae_eKECDKsGE9r01VdnN-111" vertex="1">
          <mxGeometry x="-22.727272727272723" y="-21" width="68.18181818181817" height="30" as="geometry" />
        </mxCell>
        <mxCell id="ae_eKECDKsGE9r01VdnN-115" value="32" style="text;html=1;align=center;verticalAlign=middle;whiteSpace=wrap;rounded=0;" parent="ae_eKECDKsGE9r01VdnN-96" vertex="1">
          <mxGeometry y="138.82999999999993" width="68.18181818181819" height="30" as="geometry" />
        </mxCell>
        <mxCell id="ae_eKECDKsGE9r01VdnN-116" value="A" style="text;html=1;align=center;verticalAlign=middle;whiteSpace=wrap;rounded=0;" parent="ae_eKECDKsGE9r01VdnN-96" vertex="1">
          <mxGeometry x="47.72727272727273" y="49" width="68.18181818181819" height="30" as="geometry" />
        </mxCell>
        <mxCell id="ae_eKECDKsGE9r01VdnN-117" value="B" style="text;html=1;align=center;verticalAlign=middle;whiteSpace=wrap;rounded=0;" parent="ae_eKECDKsGE9r01VdnN-96" vertex="1">
          <mxGeometry x="47.72727272727273" y="154" width="68.18181818181819" height="30" as="geometry" />
        </mxCell>
        <mxCell id="ae_eKECDKsGE9r01VdnN-118" value="ALU operation" style="text;html=1;align=center;verticalAlign=middle;whiteSpace=wrap;rounded=0;" parent="ae_eKECDKsGE9r01VdnN-96" vertex="1">
          <mxGeometry x="109.09090909090908" width="90.9090909090909" height="30" as="geometry" />
        </mxCell>
        <mxCell id="ae_eKECDKsGE9r01VdnN-119" value="" style="endArrow=none;html=1;rounded=0;exitX=1;exitY=1;exitDx=0;exitDy=0;entryX=0;entryY=0.5;entryDx=0;entryDy=0;entryPerimeter=0;" parent="1" target="ae_eKECDKsGE9r01VdnN-100" edge="1">
          <mxGeometry width="50" height="50" relative="1" as="geometry">
            <mxPoint x="233.00000000000003" y="492" as="sourcePoint" />
            <mxPoint x="340" y="529" as="targetPoint" />
            <Array as="points">
              <mxPoint x="300" y="492" />
              <mxPoint x="300" y="464" />
            </Array>
          </mxGeometry>
        </mxCell>
        <mxCell id="ae_eKECDKsGE9r01VdnN-120" value="" style="endArrow=none;html=1;rounded=0;exitX=0.969;exitY=0.978;exitDx=0;exitDy=0;exitPerimeter=0;entryX=0.203;entryY=1.001;entryDx=0;entryDy=0;entryPerimeter=0;" parent="1" source="ae_eKECDKsGE9r01VdnN-53" target="ae_eKECDKsGE9r01VdnN-92" edge="1">
          <mxGeometry width="50" height="50" relative="1" as="geometry">
            <mxPoint x="258.6399999999999" y="543.0699999999999" as="sourcePoint" />
            <mxPoint x="592" y="532" as="targetPoint" />
            <Array as="points">
              <mxPoint x="270" y="550" />
              <mxPoint x="270" y="630" />
              <mxPoint x="580" y="630" />
              <mxPoint x="580" y="538" />
            </Array>
          </mxGeometry>
        </mxCell>
        <mxCell id="ae_eKECDKsGE9r01VdnN-121" value="" style="endArrow=none;html=1;rounded=0;entryX=0.214;entryY=0.959;entryDx=0;entryDy=0;entryPerimeter=0;" parent="1" target="ae_eKECDKsGE9r01VdnN-48" edge="1">
          <mxGeometry width="50" height="50" relative="1" as="geometry">
            <mxPoint x="-131.83999999999997" y="475" as="sourcePoint" />
            <mxPoint x="-61.839999999999975" y="595" as="targetPoint" />
            <Array as="points">
              <mxPoint x="-93.83999999999997" y="475" />
              <mxPoint x="-93.83999999999997" y="473" />
            </Array>
          </mxGeometry>
        </mxCell>
        <mxCell id="ae_eKECDKsGE9r01VdnN-122" value="" style="endArrow=none;html=1;rounded=0;exitX=0.19;exitY=0.971;exitDx=0;exitDy=0;exitPerimeter=0;entryX=1;entryY=0.5;entryDx=0;entryDy=0;" parent="1" target="0JMGet9Vj3v4Qi80jiQD-30" edge="1">
          <mxGeometry width="50" height="50" relative="1" as="geometry">
            <mxPoint x="39.399999999999864" y="576.1300000000001" as="sourcePoint" />
            <mxPoint x="960" y="521" as="targetPoint" />
            <Array as="points">
              <mxPoint x="10.000000000000028" y="576" />
              <mxPoint x="10.000000000000028" y="643" />
              <mxPoint x="570" y="643" />
              <mxPoint x="840.0000000000001" y="643" />
              <mxPoint x="880" y="643" />
              <mxPoint x="880" y="505" />
            </Array>
          </mxGeometry>
        </mxCell>
        <mxCell id="ae_eKECDKsGE9r01VdnN-123" value="" style="endArrow=none;html=1;rounded=0;exitX=0.214;exitY=1.005;exitDx=0;exitDy=0;exitPerimeter=0;" parent="1" edge="1">
          <mxGeometry width="50" height="50" relative="1" as="geometry">
            <mxPoint x="39.83999999999992" y="505.1500000000001" as="sourcePoint" />
            <mxPoint x="-93.83999999999997" y="474" as="targetPoint" />
            <Array as="points">
              <mxPoint x="-93.83999999999997" y="505" />
            </Array>
          </mxGeometry>
        </mxCell>
        <mxCell id="ae_eKECDKsGE9r01VdnN-124" value="" style="endArrow=none;html=1;rounded=0;entryX=0.194;entryY=0.946;entryDx=0;entryDy=0;entryPerimeter=0;exitX=0.97;exitY=0.521;exitDx=0;exitDy=0;exitPerimeter=0;" parent="1" source="ae_eKECDKsGE9r01VdnN-102" target="ae_eKECDKsGE9r01VdnN-93" edge="1">
          <mxGeometry width="50" height="50" relative="1" as="geometry">
            <mxPoint x="550" y="532" as="sourcePoint" />
            <mxPoint x="590.0000000000001" y="317" as="targetPoint" />
            <Array as="points">
              <mxPoint x="560" y="517" />
              <mxPoint x="560" y="477" />
            </Array>
          </mxGeometry>
        </mxCell>
        <mxCell id="ae_eKECDKsGE9r01VdnN-125" value="&lt;font style=&quot;font-size: 14px;&quot;&gt;&lt;b&gt;Sign Extension&lt;/b&gt;&lt;/font&gt;" style="ellipse;whiteSpace=wrap;html=1;" parent="1" vertex="1">
          <mxGeometry x="90.00000000000003" y="662" width="120" height="80" as="geometry" />
        </mxCell>
        <mxCell id="ae_eKECDKsGE9r01VdnN-126" value="" style="endArrow=none;html=1;rounded=0;exitX=0.85;exitY=0.733;exitDx=0;exitDy=0;exitPerimeter=0;" parent="1" source="ae_eKECDKsGE9r01VdnN-133" edge="1">
          <mxGeometry width="50" height="50" relative="1" as="geometry">
            <mxPoint x="26.159999999996387" y="701" as="sourcePoint" />
            <mxPoint x="-94" y="500" as="targetPoint" />
            <Array as="points">
              <mxPoint x="-93.83999999999997" y="701" />
            </Array>
          </mxGeometry>
        </mxCell>
        <mxCell id="ae_eKECDKsGE9r01VdnN-129" value="" style="endArrow=none;html=1;rounded=0;" parent="1" edge="1">
          <mxGeometry width="50" height="50" relative="1" as="geometry">
            <mxPoint x="70.00000000000003" y="707.5" as="sourcePoint" />
            <mxPoint x="80.00000000000003" y="692.5" as="targetPoint" />
          </mxGeometry>
        </mxCell>
        <mxCell id="ae_eKECDKsGE9r01VdnN-130" value="" style="endArrow=none;html=1;rounded=0;" parent="1" edge="1">
          <mxGeometry width="50" height="50" relative="1" as="geometry">
            <mxPoint x="215.00000000000003" y="709.5" as="sourcePoint" />
            <mxPoint x="225.00000000000003" y="694.5" as="targetPoint" />
          </mxGeometry>
        </mxCell>
        <mxCell id="ae_eKECDKsGE9r01VdnN-133" value="16" style="text;html=1;align=center;verticalAlign=middle;whiteSpace=wrap;rounded=0;fontFamily=Helvetica;fontSize=12;fontColor=default;" parent="1" vertex="1">
          <mxGeometry x="39.00000000000003" y="680" width="60" height="30" as="geometry" />
        </mxCell>
        <mxCell id="ae_eKECDKsGE9r01VdnN-134" value="32" style="text;html=1;align=center;verticalAlign=middle;whiteSpace=wrap;rounded=0;fontFamily=Helvetica;fontSize=12;fontColor=default;" parent="1" vertex="1">
          <mxGeometry x="193.00000000000003" y="674" width="60" height="30" as="geometry" />
        </mxCell>
        <mxCell id="0JMGet9Vj3v4Qi80jiQD-11" value="" style="group" parent="1" vertex="1" connectable="0">
          <mxGeometry x="-43.839999999999975" y="507" width="50" height="110" as="geometry" />
        </mxCell>
        <mxCell id="0JMGet9Vj3v4Qi80jiQD-5" value="" style="rounded=1;whiteSpace=wrap;html=1;rotation=-90;" parent="0JMGet9Vj3v4Qi80jiQD-11" vertex="1">
          <mxGeometry x="-8.649999999999997" y="25.78125" width="66.66666666666667" height="24.0625" as="geometry" />
        </mxCell>
        <mxCell id="0JMGet9Vj3v4Qi80jiQD-6" value="&lt;font style=&quot;font-size: 10px;&quot;&gt;&lt;font style=&quot;&quot;&gt;M&lt;/font&gt;&lt;/font&gt;&lt;font style=&quot;background-color: initial; font-size: 10px;&quot;&gt;&lt;span style=&quot;background-color: initial;&quot;&gt;U&lt;/span&gt;&lt;/font&gt;&lt;span style=&quot;background-color: initial; font-size: 10px;&quot;&gt;X&lt;/span&gt;" style="text;html=1;align=center;verticalAlign=middle;whiteSpace=wrap;rounded=0;fontStyle=0" parent="0JMGet9Vj3v4Qi80jiQD-11" vertex="1">
          <mxGeometry x="11.21666666666665" y="25.78125" width="27.566666666666666" height="25.78125" as="geometry" />
        </mxCell>
        <mxCell id="0JMGet9Vj3v4Qi80jiQD-7" value="" style="endArrow=classic;html=1;rounded=0;entryX=0;entryY=0.5;entryDx=0;entryDy=0;" parent="0JMGet9Vj3v4Qi80jiQD-11" target="0JMGet9Vj3v4Qi80jiQD-5" edge="1">
          <mxGeometry width="50" height="50" relative="1" as="geometry">
            <mxPoint x="24.683333333333337" y="92.8125" as="sourcePoint" />
            <mxPoint x="33.01666666666667" y="101.40625" as="targetPoint" />
          </mxGeometry>
        </mxCell>
        <mxCell id="0JMGet9Vj3v4Qi80jiQD-8" value="RegDst" style="text;html=1;align=center;verticalAlign=middle;whiteSpace=wrap;rounded=0;" parent="0JMGet9Vj3v4Qi80jiQD-11" vertex="1">
          <mxGeometry y="84.21875" width="50" height="25.78125" as="geometry" />
        </mxCell>
        <mxCell id="0JMGet9Vj3v4Qi80jiQD-9" value="&lt;b&gt;1&lt;/b&gt;" style="text;html=1;align=center;verticalAlign=middle;whiteSpace=wrap;rounded=0;" parent="0JMGet9Vj3v4Qi80jiQD-11" vertex="1">
          <mxGeometry width="50" height="25.78125" as="geometry" />
        </mxCell>
        <mxCell id="0JMGet9Vj3v4Qi80jiQD-10" value="&lt;b&gt;0&lt;/b&gt;" style="text;html=1;align=center;verticalAlign=middle;whiteSpace=wrap;rounded=0;" parent="0JMGet9Vj3v4Qi80jiQD-11" vertex="1">
          <mxGeometry y="50" width="50" height="27.34" as="geometry" />
        </mxCell>
        <mxCell id="0JMGet9Vj3v4Qi80jiQD-13" value="" style="group" parent="1" vertex="1" connectable="0">
          <mxGeometry x="308" y="528" width="50" height="110" as="geometry" />
        </mxCell>
        <mxCell id="0JMGet9Vj3v4Qi80jiQD-14" value="" style="rounded=1;whiteSpace=wrap;html=1;rotation=-90;" parent="0JMGet9Vj3v4Qi80jiQD-13" vertex="1">
          <mxGeometry x="-8.649999999999997" y="25.78125" width="66.66666666666667" height="24.0625" as="geometry" />
        </mxCell>
        <mxCell id="0JMGet9Vj3v4Qi80jiQD-15" value="&lt;font style=&quot;font-size: 10px;&quot;&gt;&lt;font style=&quot;&quot;&gt;M&lt;/font&gt;&lt;/font&gt;&lt;font style=&quot;background-color: initial; font-size: 10px;&quot;&gt;&lt;span style=&quot;background-color: initial;&quot;&gt;U&lt;/span&gt;&lt;/font&gt;&lt;span style=&quot;background-color: initial; font-size: 10px;&quot;&gt;X&lt;/span&gt;" style="text;html=1;align=center;verticalAlign=middle;whiteSpace=wrap;rounded=0;fontStyle=0" parent="0JMGet9Vj3v4Qi80jiQD-13" vertex="1">
          <mxGeometry x="11.21666666666665" y="25.78125" width="27.566666666666666" height="25.78125" as="geometry" />
        </mxCell>
        <mxCell id="0JMGet9Vj3v4Qi80jiQD-16" value="" style="endArrow=classic;html=1;rounded=0;entryX=0;entryY=0.5;entryDx=0;entryDy=0;" parent="0JMGet9Vj3v4Qi80jiQD-13" target="0JMGet9Vj3v4Qi80jiQD-14" edge="1">
          <mxGeometry width="50" height="50" relative="1" as="geometry">
            <mxPoint x="24.683333333333337" y="92.8125" as="sourcePoint" />
            <mxPoint x="33.01666666666667" y="101.40625" as="targetPoint" />
          </mxGeometry>
        </mxCell>
        <mxCell id="0JMGet9Vj3v4Qi80jiQD-17" value="ALUSrc" style="text;html=1;align=center;verticalAlign=middle;whiteSpace=wrap;rounded=0;" parent="0JMGet9Vj3v4Qi80jiQD-13" vertex="1">
          <mxGeometry x="24" y="76.21875" width="50" height="25.78125" as="geometry" />
        </mxCell>
        <mxCell id="0JMGet9Vj3v4Qi80jiQD-18" value="&lt;b&gt;1&lt;/b&gt;" style="text;html=1;align=center;verticalAlign=middle;whiteSpace=wrap;rounded=0;" parent="0JMGet9Vj3v4Qi80jiQD-13" vertex="1">
          <mxGeometry width="50" height="25.78125" as="geometry" />
        </mxCell>
        <mxCell id="0JMGet9Vj3v4Qi80jiQD-19" value="&lt;b&gt;0&lt;/b&gt;" style="text;html=1;align=center;verticalAlign=middle;whiteSpace=wrap;rounded=0;" parent="0JMGet9Vj3v4Qi80jiQD-13" vertex="1">
          <mxGeometry y="50.5625" width="50" height="25.78125" as="geometry" />
        </mxCell>
        <mxCell id="0JMGet9Vj3v4Qi80jiQD-28" value="" style="group" parent="1" vertex="1" connectable="0">
          <mxGeometry x="821" y="466" width="50" height="110" as="geometry" />
        </mxCell>
        <mxCell id="0JMGet9Vj3v4Qi80jiQD-29" value="" style="rounded=1;whiteSpace=wrap;html=1;rotation=-90;" parent="0JMGet9Vj3v4Qi80jiQD-28" vertex="1">
          <mxGeometry x="-8.649999999999997" y="25.78125" width="66.66666666666667" height="24.0625" as="geometry" />
        </mxCell>
        <mxCell id="0JMGet9Vj3v4Qi80jiQD-30" value="&lt;font style=&quot;font-size: 10px;&quot;&gt;&lt;font style=&quot;&quot;&gt;M&lt;/font&gt;&lt;/font&gt;&lt;font style=&quot;background-color: initial; font-size: 10px;&quot;&gt;&lt;span style=&quot;background-color: initial;&quot;&gt;U&lt;/span&gt;&lt;/font&gt;&lt;span style=&quot;background-color: initial; font-size: 10px;&quot;&gt;X&lt;/span&gt;" style="text;html=1;align=center;verticalAlign=middle;whiteSpace=wrap;rounded=0;fontStyle=0" parent="0JMGet9Vj3v4Qi80jiQD-28" vertex="1">
          <mxGeometry x="11.21666666666665" y="25.78125" width="27.566666666666666" height="25.78125" as="geometry" />
        </mxCell>
        <mxCell id="0JMGet9Vj3v4Qi80jiQD-31" value="" style="endArrow=classic;html=1;rounded=0;entryX=0;entryY=0.5;entryDx=0;entryDy=0;" parent="0JMGet9Vj3v4Qi80jiQD-28" target="0JMGet9Vj3v4Qi80jiQD-29" edge="1">
          <mxGeometry width="50" height="50" relative="1" as="geometry">
            <mxPoint x="24.683333333333337" y="92.8125" as="sourcePoint" />
            <mxPoint x="33.01666666666667" y="101.40625" as="targetPoint" />
          </mxGeometry>
        </mxCell>
        <mxCell id="0JMGet9Vj3v4Qi80jiQD-32" value="MemtoReg" style="text;html=1;align=center;verticalAlign=middle;whiteSpace=wrap;rounded=0;" parent="0JMGet9Vj3v4Qi80jiQD-28" vertex="1">
          <mxGeometry y="84.21875" width="50" height="25.78125" as="geometry" />
        </mxCell>
        <mxCell id="0JMGet9Vj3v4Qi80jiQD-33" value="&lt;b&gt;1&lt;/b&gt;" style="text;html=1;align=center;verticalAlign=middle;whiteSpace=wrap;rounded=0;" parent="0JMGet9Vj3v4Qi80jiQD-28" vertex="1">
          <mxGeometry width="50" height="25.78125" as="geometry" />
        </mxCell>
        <mxCell id="0JMGet9Vj3v4Qi80jiQD-34" value="&lt;b&gt;0&lt;/b&gt;" style="text;html=1;align=center;verticalAlign=middle;whiteSpace=wrap;rounded=0;" parent="0JMGet9Vj3v4Qi80jiQD-28" vertex="1">
          <mxGeometry y="51.56" width="50" height="25.78" as="geometry" />
        </mxCell>
        <mxCell id="0JMGet9Vj3v4Qi80jiQD-36" value="" style="endArrow=classic;html=1;rounded=0;entryX=0.24;entryY=0.465;entryDx=0;entryDy=0;entryPerimeter=0;" parent="1" target="0JMGet9Vj3v4Qi80jiQD-18" edge="1">
          <mxGeometry width="50" height="50" relative="1" as="geometry">
            <mxPoint x="270" y="550" as="sourcePoint" />
            <mxPoint x="520" y="540" as="targetPoint" />
            <Array as="points">
              <mxPoint x="270" y="540" />
            </Array>
          </mxGeometry>
        </mxCell>
        <mxCell id="0JMGet9Vj3v4Qi80jiQD-37" value="" style="endArrow=none;html=1;rounded=0;exitX=0.288;exitY=0.917;exitDx=0;exitDy=0;exitPerimeter=0;entryX=0.24;entryY=0.444;entryDx=0;entryDy=0;entryPerimeter=0;" parent="1" source="ae_eKECDKsGE9r01VdnN-134" target="0JMGet9Vj3v4Qi80jiQD-19" edge="1">
          <mxGeometry width="50" height="50" relative="1" as="geometry">
            <mxPoint x="420" y="640" as="sourcePoint" />
            <mxPoint x="320" y="590" as="targetPoint" />
            <Array as="points">
              <mxPoint x="240" y="702" />
              <mxPoint x="240" y="590" />
            </Array>
          </mxGeometry>
        </mxCell>
        <mxCell id="0JMGet9Vj3v4Qi80jiQD-38" value="" style="endArrow=classic;html=1;rounded=0;" parent="1" edge="1">
          <mxGeometry width="50" height="50" relative="1" as="geometry">
            <mxPoint x="240" y="700" as="sourcePoint" />
            <mxPoint x="320" y="590" as="targetPoint" />
            <Array as="points">
              <mxPoint x="240" y="590" />
            </Array>
          </mxGeometry>
        </mxCell>
        <mxCell id="0JMGet9Vj3v4Qi80jiQD-39" value="" style="endArrow=none;html=1;rounded=0;exitX=0.927;exitY=0.595;exitDx=0;exitDy=0;exitPerimeter=0;entryX=-0.004;entryY=0.532;entryDx=0;entryDy=0;entryPerimeter=0;" parent="1" source="0JMGet9Vj3v4Qi80jiQD-15" target="ae_eKECDKsGE9r01VdnN-101" edge="1">
          <mxGeometry width="50" height="50" relative="1" as="geometry">
            <mxPoint x="440" y="630" as="sourcePoint" />
            <mxPoint x="370" y="570" as="targetPoint" />
          </mxGeometry>
        </mxCell>
        <mxCell id="0JMGet9Vj3v4Qi80jiQD-40" value="" style="endArrow=classic;html=1;rounded=0;entryX=0.277;entryY=0.5;entryDx=0;entryDy=0;entryPerimeter=0;" parent="1" target="0JMGet9Vj3v4Qi80jiQD-9" edge="1">
          <mxGeometry width="50" height="50" relative="1" as="geometry">
            <mxPoint x="-70" y="510" as="sourcePoint" />
            <mxPoint x="-10" y="520" as="targetPoint" />
            <Array as="points">
              <mxPoint x="-70" y="520" />
            </Array>
          </mxGeometry>
        </mxCell>
        <mxCell id="0JMGet9Vj3v4Qi80jiQD-41" value="" style="endArrow=none;html=1;rounded=0;" parent="1" edge="1">
          <mxGeometry width="50" height="50" relative="1" as="geometry">
            <mxPoint x="-70" y="511" as="sourcePoint" />
            <mxPoint x="-70" y="505" as="targetPoint" />
          </mxGeometry>
        </mxCell>
        <mxCell id="0JMGet9Vj3v4Qi80jiQD-42" value="" style="endArrow=classic;html=1;rounded=0;entryX=0.277;entryY=0.444;entryDx=0;entryDy=0;entryPerimeter=0;" parent="1" target="0JMGet9Vj3v4Qi80jiQD-10" edge="1">
          <mxGeometry width="50" height="50" relative="1" as="geometry">
            <mxPoint x="-90" y="570" as="sourcePoint" />
            <mxPoint x="-10" y="540" as="targetPoint" />
          </mxGeometry>
        </mxCell>
        <mxCell id="0JMGet9Vj3v4Qi80jiQD-43" value="" style="endArrow=none;html=1;rounded=0;" parent="1" edge="1">
          <mxGeometry width="50" height="50" relative="1" as="geometry">
            <mxPoint x="-84" y="570" as="sourcePoint" />
            <mxPoint x="-94" y="570" as="targetPoint" />
          </mxGeometry>
        </mxCell>
        <mxCell id="0JMGet9Vj3v4Qi80jiQD-45" value="" style="endArrow=none;html=1;rounded=0;exitX=0.923;exitY=0.476;exitDx=0;exitDy=0;entryX=0.221;entryY=0.921;entryDx=0;entryDy=0;entryPerimeter=0;exitPerimeter=0;" parent="1" source="0JMGet9Vj3v4Qi80jiQD-6" target="ae_eKECDKsGE9r01VdnN-50" edge="1">
          <mxGeometry width="50" height="50" relative="1" as="geometry">
            <mxPoint x="10" y="590" as="sourcePoint" />
            <mxPoint x="60" y="540" as="targetPoint" />
          </mxGeometry>
        </mxCell>
        <mxCell id="0JMGet9Vj3v4Qi80jiQD-46" value="" style="endArrow=classic;html=1;rounded=0;entryX=0.2;entryY=0.465;entryDx=0;entryDy=0;entryPerimeter=0;exitX=1;exitY=1;exitDx=0;exitDy=0;" parent="1" source="ae_eKECDKsGE9r01VdnN-91" target="0JMGet9Vj3v4Qi80jiQD-33" edge="1">
          <mxGeometry width="50" height="50" relative="1" as="geometry">
            <mxPoint x="780" y="550" as="sourcePoint" />
            <mxPoint x="830" y="500" as="targetPoint" />
          </mxGeometry>
        </mxCell>
        <mxCell id="0JMGet9Vj3v4Qi80jiQD-47" value="" style="endArrow=classic;html=1;rounded=0;entryX=0.2;entryY=0.482;entryDx=0;entryDy=0;entryPerimeter=0;" parent="1" target="0JMGet9Vj3v4Qi80jiQD-34" edge="1">
          <mxGeometry width="50" height="50" relative="1" as="geometry">
            <mxPoint x="560" y="510" as="sourcePoint" />
            <mxPoint x="640" y="510" as="targetPoint" />
            <Array as="points">
              <mxPoint x="560" y="640" />
              <mxPoint x="790" y="640" />
              <mxPoint x="790" y="530" />
            </Array>
          </mxGeometry>
        </mxCell>
        <mxCell id="fryc1NkC0Bsvut2HGKPe-7" value="&lt;b&gt;shift left by 2&lt;/b&gt;" style="ellipse;whiteSpace=wrap;html=1;" parent="1" vertex="1">
          <mxGeometry x="248" y="-88" width="87" height="50" as="geometry" />
        </mxCell>
        <mxCell id="fryc1NkC0Bsvut2HGKPe-8" value="&lt;font style=&quot;font-size: 14px;&quot;&gt;&lt;b&gt;Sign Extension&lt;/b&gt;&lt;/font&gt;" style="ellipse;whiteSpace=wrap;html=1;" parent="1" vertex="1">
          <mxGeometry x="90.00000000000003" y="140" width="120" height="80" as="geometry" />
        </mxCell>
        <mxCell id="fryc1NkC0Bsvut2HGKPe-10" value="15:0" style="text;html=1;align=center;verticalAlign=middle;whiteSpace=wrap;rounded=0;" parent="1" vertex="1">
          <mxGeometry x="-33" y="156" width="60" height="30" as="geometry" />
        </mxCell>
        <mxCell id="fryc1NkC0Bsvut2HGKPe-21" value="" style="group" parent="1" vertex="1" connectable="0">
          <mxGeometry x="742" y="-195" width="50" height="110" as="geometry" />
        </mxCell>
        <mxCell id="fryc1NkC0Bsvut2HGKPe-22" value="" style="rounded=1;whiteSpace=wrap;html=1;rotation=-90;" parent="fryc1NkC0Bsvut2HGKPe-21" vertex="1">
          <mxGeometry x="-8.649999999999997" y="25.78125" width="66.66666666666667" height="24.0625" as="geometry" />
        </mxCell>
        <mxCell id="fryc1NkC0Bsvut2HGKPe-23" value="&lt;font style=&quot;font-size: 10px;&quot;&gt;&lt;font style=&quot;&quot;&gt;M&lt;/font&gt;&lt;/font&gt;&lt;font style=&quot;background-color: initial; font-size: 10px;&quot;&gt;&lt;span style=&quot;background-color: initial;&quot;&gt;U&lt;/span&gt;&lt;/font&gt;&lt;span style=&quot;background-color: initial; font-size: 10px;&quot;&gt;X&lt;/span&gt;" style="text;html=1;align=center;verticalAlign=middle;whiteSpace=wrap;rounded=0;fontStyle=0" parent="fryc1NkC0Bsvut2HGKPe-21" vertex="1">
          <mxGeometry x="11.22" y="25.78" width="28.78" height="25.78" as="geometry" />
        </mxCell>
        <mxCell id="fryc1NkC0Bsvut2HGKPe-24" value="" style="endArrow=classic;html=1;rounded=0;entryX=0;entryY=0.5;entryDx=0;entryDy=0;" parent="fryc1NkC0Bsvut2HGKPe-21" target="fryc1NkC0Bsvut2HGKPe-22" edge="1">
          <mxGeometry width="50" height="50" relative="1" as="geometry">
            <mxPoint x="24.683333333333337" y="92.8125" as="sourcePoint" />
            <mxPoint x="33.01666666666667" y="101.40625" as="targetPoint" />
          </mxGeometry>
        </mxCell>
        <mxCell id="fryc1NkC0Bsvut2HGKPe-25" value="Jump" style="text;html=1;align=center;verticalAlign=middle;whiteSpace=wrap;rounded=0;" parent="fryc1NkC0Bsvut2HGKPe-21" vertex="1">
          <mxGeometry y="84.21875" width="50" height="25.78125" as="geometry" />
        </mxCell>
        <mxCell id="fryc1NkC0Bsvut2HGKPe-26" value="&lt;b&gt;1&lt;/b&gt;" style="text;html=1;align=center;verticalAlign=middle;whiteSpace=wrap;rounded=0;" parent="fryc1NkC0Bsvut2HGKPe-21" vertex="1">
          <mxGeometry width="50" height="25.78125" as="geometry" />
        </mxCell>
        <mxCell id="fryc1NkC0Bsvut2HGKPe-27" value="&lt;b&gt;0&lt;/b&gt;" style="text;html=1;align=center;verticalAlign=middle;whiteSpace=wrap;rounded=0;" parent="fryc1NkC0Bsvut2HGKPe-21" vertex="1">
          <mxGeometry y="51.56" width="50" height="25.78" as="geometry" />
        </mxCell>
        <mxCell id="fryc1NkC0Bsvut2HGKPe-28" value="" style="group" parent="1" vertex="1" connectable="0">
          <mxGeometry x="657" y="-195" width="50" height="110" as="geometry" />
        </mxCell>
        <mxCell id="fryc1NkC0Bsvut2HGKPe-29" value="" style="rounded=1;whiteSpace=wrap;html=1;rotation=-90;" parent="fryc1NkC0Bsvut2HGKPe-28" vertex="1">
          <mxGeometry x="-8.649999999999997" y="25.78125" width="66.66666666666667" height="24.0625" as="geometry" />
        </mxCell>
        <mxCell id="fryc1NkC0Bsvut2HGKPe-30" value="&lt;font style=&quot;font-size: 10px;&quot;&gt;&lt;font style=&quot;&quot;&gt;M&lt;/font&gt;&lt;/font&gt;&lt;font style=&quot;background-color: initial; font-size: 10px;&quot;&gt;&lt;span style=&quot;background-color: initial;&quot;&gt;U&lt;/span&gt;&lt;/font&gt;&lt;span style=&quot;background-color: initial; font-size: 10px;&quot;&gt;X&lt;/span&gt;" style="text;html=1;align=center;verticalAlign=middle;whiteSpace=wrap;rounded=0;fontStyle=0" parent="fryc1NkC0Bsvut2HGKPe-28" vertex="1">
          <mxGeometry x="11.21666666666665" y="25.78125" width="27.566666666666666" height="25.78125" as="geometry" />
        </mxCell>
        <mxCell id="fryc1NkC0Bsvut2HGKPe-31" value="" style="endArrow=classic;html=1;rounded=0;entryX=0;entryY=0.5;entryDx=0;entryDy=0;" parent="fryc1NkC0Bsvut2HGKPe-28" target="fryc1NkC0Bsvut2HGKPe-29" edge="1">
          <mxGeometry width="50" height="50" relative="1" as="geometry">
            <mxPoint x="24.683333333333337" y="92.8125" as="sourcePoint" />
            <mxPoint x="33.01666666666667" y="101.40625" as="targetPoint" />
          </mxGeometry>
        </mxCell>
        <mxCell id="fryc1NkC0Bsvut2HGKPe-33" value="&lt;b&gt;0&lt;/b&gt;" style="text;html=1;align=center;verticalAlign=middle;whiteSpace=wrap;rounded=0;" parent="fryc1NkC0Bsvut2HGKPe-28" vertex="1">
          <mxGeometry width="50" height="25.78125" as="geometry" />
        </mxCell>
        <mxCell id="fryc1NkC0Bsvut2HGKPe-34" value="&lt;b&gt;1&lt;/b&gt;" style="text;html=1;align=center;verticalAlign=middle;whiteSpace=wrap;rounded=0;" parent="fryc1NkC0Bsvut2HGKPe-28" vertex="1">
          <mxGeometry y="51.56" width="50" height="25.78" as="geometry" />
        </mxCell>
        <mxCell id="UkTgxWB1Igg4LFEnIDUK-2" value="" style="endArrow=classic;html=1;rounded=0;entryX=0;entryY=0.5;entryDx=0;entryDy=0;entryPerimeter=0;exitX=1;exitY=0.5;exitDx=0;exitDy=0;exitPerimeter=0;" edge="1" parent="1" source="fspLrODclx2UsOWjgFe7-54" target="kPrliXdwBTatnAJakIU0-63">
          <mxGeometry width="50" height="50" relative="1" as="geometry">
            <mxPoint x="-10" y="-160" as="sourcePoint" />
            <mxPoint x="340" y="-160" as="targetPoint" />
            <Array as="points">
              <mxPoint x="160" y="-105" />
              <mxPoint x="160" y="-160" />
            </Array>
          </mxGeometry>
        </mxCell>
        <mxCell id="UkTgxWB1Igg4LFEnIDUK-3" value="" style="endArrow=classic;html=1;rounded=0;exitX=1;exitY=0.5;exitDx=0;exitDy=0;exitPerimeter=0;entryX=0.3;entryY=0.521;entryDx=0;entryDy=0;entryPerimeter=0;" edge="1" parent="1" source="kPrliXdwBTatnAJakIU0-65" target="fryc1NkC0Bsvut2HGKPe-34">
          <mxGeometry width="50" height="50" relative="1" as="geometry">
            <mxPoint x="442" y="-40" as="sourcePoint" />
            <mxPoint x="612" y="-130" as="targetPoint" />
          </mxGeometry>
        </mxCell>
        <mxCell id="UkTgxWB1Igg4LFEnIDUK-4" value="" style="endArrow=classic;html=1;rounded=0;entryX=0.3;entryY=0.582;entryDx=0;entryDy=0;entryPerimeter=0;" edge="1" parent="1" target="fryc1NkC0Bsvut2HGKPe-33">
          <mxGeometry width="50" height="50" relative="1" as="geometry">
            <mxPoint x="402" y="-160" as="sourcePoint" />
            <mxPoint x="532" y="-120" as="targetPoint" />
            <Array as="points">
              <mxPoint x="402" y="-190" />
              <mxPoint x="642" y="-190" />
              <mxPoint x="642" y="-180" />
            </Array>
          </mxGeometry>
        </mxCell>
        <mxCell id="fryc1NkC0Bsvut2HGKPe-32" value="PCSrc" style="text;html=1;align=center;verticalAlign=middle;whiteSpace=wrap;rounded=0;" parent="1" vertex="1">
          <mxGeometry x="682" y="-117.66125" width="50" height="25.78125" as="geometry" />
        </mxCell>
        <mxCell id="UkTgxWB1Igg4LFEnIDUK-5" value="" style="shape=or;whiteSpace=wrap;html=1;" vertex="1" parent="1">
          <mxGeometry x="593" y="-88" width="20" height="32" as="geometry" />
        </mxCell>
        <mxCell id="UkTgxWB1Igg4LFEnIDUK-6" value="" style="endArrow=none;html=1;rounded=0;exitX=1;exitY=0.5;exitDx=0;exitDy=0;exitPerimeter=0;entryX=0;entryY=0.5;entryDx=0;entryDy=0;" edge="1" parent="1" source="UkTgxWB1Igg4LFEnIDUK-5" target="fryc1NkC0Bsvut2HGKPe-32">
          <mxGeometry width="50" height="50" relative="1" as="geometry">
            <mxPoint x="712" y="-41.88" as="sourcePoint" />
            <mxPoint x="762" y="-91.88" as="targetPoint" />
            <Array as="points">
              <mxPoint x="682" y="-72" />
            </Array>
          </mxGeometry>
        </mxCell>
        <mxCell id="UkTgxWB1Igg4LFEnIDUK-8" value="" style="endArrow=classic;html=1;rounded=0;entryX=0;entryY=0.75;entryDx=0;entryDy=0;entryPerimeter=0;" edge="1" parent="1" target="UkTgxWB1Igg4LFEnIDUK-5">
          <mxGeometry width="50" height="50" relative="1" as="geometry">
            <mxPoint x="530" y="40" as="sourcePoint" />
            <mxPoint x="612" y="-40" as="targetPoint" />
            <Array as="points">
              <mxPoint x="560" y="40" />
              <mxPoint x="560" y="-64" />
            </Array>
          </mxGeometry>
        </mxCell>
        <mxCell id="UkTgxWB1Igg4LFEnIDUK-9" value="Branch" style="text;html=1;align=center;verticalAlign=middle;whiteSpace=wrap;rounded=0;" vertex="1" parent="1">
          <mxGeometry x="525.0909090909091" y="-103" width="90.9090909090909" height="30" as="geometry" />
        </mxCell>
        <mxCell id="UkTgxWB1Igg4LFEnIDUK-10" value="" style="endArrow=classic;html=1;rounded=0;exitX=0.7;exitY=0.521;exitDx=0;exitDy=0;exitPerimeter=0;entryX=0.2;entryY=0.521;entryDx=0;entryDy=0;entryPerimeter=0;" edge="1" parent="1" source="fryc1NkC0Bsvut2HGKPe-34" target="fryc1NkC0Bsvut2HGKPe-27">
          <mxGeometry width="50" height="50" relative="1" as="geometry">
            <mxPoint x="492" y="-190" as="sourcePoint" />
            <mxPoint x="752" y="-150" as="targetPoint" />
          </mxGeometry>
        </mxCell>
        <mxCell id="UkTgxWB1Igg4LFEnIDUK-11" value="&lt;b&gt;shift left by 2&lt;/b&gt;" style="ellipse;whiteSpace=wrap;html=1;" vertex="1" parent="1">
          <mxGeometry y="-225" width="87" height="50" as="geometry" />
        </mxCell>
        <mxCell id="UkTgxWB1Igg4LFEnIDUK-12" value="" style="endArrow=none;html=1;rounded=0;" edge="1" parent="1" target="UkTgxWB1Igg4LFEnIDUK-11">
          <mxGeometry width="50" height="50" relative="1" as="geometry">
            <mxPoint x="-40" y="30" as="sourcePoint" />
            <mxPoint x="-9.999999999999773" y="-200" as="targetPoint" />
            <Array as="points">
              <mxPoint x="-40" y="-200" />
            </Array>
          </mxGeometry>
        </mxCell>
        <mxCell id="UkTgxWB1Igg4LFEnIDUK-13" value="25:0" style="text;html=1;align=center;verticalAlign=middle;whiteSpace=wrap;rounded=0;" vertex="1" parent="1">
          <mxGeometry x="-43.839999999999975" y="-225" width="60" height="30" as="geometry" />
        </mxCell>
        <mxCell id="UkTgxWB1Igg4LFEnIDUK-14" value="" style="endArrow=none;html=1;rounded=0;exitX=1;exitY=0.5;exitDx=0;exitDy=0;" edge="1" parent="1" source="UkTgxWB1Igg4LFEnIDUK-11">
          <mxGeometry width="50" height="50" relative="1" as="geometry">
            <mxPoint x="260" y="-110" as="sourcePoint" />
            <mxPoint x="720" y="-200" as="targetPoint" />
          </mxGeometry>
        </mxCell>
        <mxCell id="UkTgxWB1Igg4LFEnIDUK-15" value="" style="endArrow=none;html=1;rounded=0;" edge="1" parent="1">
          <mxGeometry width="50" height="50" relative="1" as="geometry">
            <mxPoint x="160" y="-160" as="sourcePoint" />
            <mxPoint x="160" y="-200" as="targetPoint" />
          </mxGeometry>
        </mxCell>
        <mxCell id="UkTgxWB1Igg4LFEnIDUK-16" value="(PC+4)[31:28]" style="text;html=1;align=center;verticalAlign=middle;whiteSpace=wrap;rounded=0;" vertex="1" parent="1">
          <mxGeometry x="159" y="-198" width="82" height="30" as="geometry" />
        </mxCell>
        <mxCell id="UkTgxWB1Igg4LFEnIDUK-17" value="28 bits" style="text;html=1;align=center;verticalAlign=middle;whiteSpace=wrap;rounded=0;" vertex="1" parent="1">
          <mxGeometry x="99" y="-223" width="60" height="30" as="geometry" />
        </mxCell>
        <mxCell id="UkTgxWB1Igg4LFEnIDUK-18" value="32 bits" style="text;html=1;align=center;verticalAlign=middle;whiteSpace=wrap;rounded=0;" vertex="1" parent="1">
          <mxGeometry x="159" y="-223" width="60" height="30" as="geometry" />
        </mxCell>
        <mxCell id="UkTgxWB1Igg4LFEnIDUK-19" value="" style="endArrow=classic;html=1;rounded=0;entryX=0.2;entryY=0.582;entryDx=0;entryDy=0;entryPerimeter=0;" edge="1" parent="1">
          <mxGeometry width="50" height="50" relative="1" as="geometry">
            <mxPoint x="720" y="-200" as="sourcePoint" />
            <mxPoint x="750" y="-179.99531249999995" as="targetPoint" />
            <Array as="points">
              <mxPoint x="720" y="-180" />
            </Array>
          </mxGeometry>
        </mxCell>
        <mxCell id="UkTgxWB1Igg4LFEnIDUK-20" value="" style="group" vertex="1" connectable="0" parent="1">
          <mxGeometry x="591.1600000000001" y="-69" width="230" height="250" as="geometry" />
        </mxCell>
        <mxCell id="UkTgxWB1Igg4LFEnIDUK-21" value="Data Memory" style="rounded=0;whiteSpace=wrap;html=1;fontStyle=1" vertex="1" parent="UkTgxWB1Igg4LFEnIDUK-20">
          <mxGeometry x="125.84" y="59" width="120" height="140" as="geometry" />
        </mxCell>
        <mxCell id="UkTgxWB1Igg4LFEnIDUK-22" value="Address" style="text;html=1;align=center;verticalAlign=middle;whiteSpace=wrap;rounded=0;" vertex="1" parent="UkTgxWB1Igg4LFEnIDUK-20">
          <mxGeometry x="122.84" y="75" width="60" height="30" as="geometry" />
        </mxCell>
        <mxCell id="UkTgxWB1Igg4LFEnIDUK-23" value="Write Data" style="text;html=1;align=center;verticalAlign=middle;whiteSpace=wrap;rounded=0;" vertex="1" parent="UkTgxWB1Igg4LFEnIDUK-20">
          <mxGeometry x="128.84" y="136" width="60" height="30" as="geometry" />
        </mxCell>
        <mxCell id="UkTgxWB1Igg4LFEnIDUK-24" value="Read Data" style="text;html=1;align=center;verticalAlign=middle;whiteSpace=wrap;rounded=0;" vertex="1" parent="UkTgxWB1Igg4LFEnIDUK-20">
          <mxGeometry x="184.84" y="75" width="60" height="30" as="geometry" />
        </mxCell>
        <mxCell id="UkTgxWB1Igg4LFEnIDUK-25" value="Mem Read" style="text;html=1;align=center;verticalAlign=middle;whiteSpace=wrap;rounded=0;" vertex="1" parent="UkTgxWB1Igg4LFEnIDUK-20">
          <mxGeometry x="186.84" y="29" width="70" height="30" as="geometry" />
        </mxCell>
        <mxCell id="UkTgxWB1Igg4LFEnIDUK-26" value="Mem Write" style="text;html=1;align=center;verticalAlign=middle;whiteSpace=wrap;rounded=0;" vertex="1" parent="UkTgxWB1Igg4LFEnIDUK-20">
          <mxGeometry x="191.84" y="198" width="70" height="30" as="geometry" />
        </mxCell>
        <mxCell id="UkTgxWB1Igg4LFEnIDUK-27" value="" style="group" vertex="1" connectable="0" parent="UkTgxWB1Igg4LFEnIDUK-20">
          <mxGeometry x="75.84" y="142" width="48" height="20" as="geometry" />
        </mxCell>
        <mxCell id="UkTgxWB1Igg4LFEnIDUK-28" value="" style="html=1;shadow=0;dashed=0;align=center;verticalAlign=middle;shape=mxgraph.arrows2.arrow;dy=0.67;dx=24.67;notch=0;movable=1;resizable=1;rotatable=1;deletable=1;editable=1;locked=0;connectable=1;fontStyle=1" vertex="1" parent="UkTgxWB1Igg4LFEnIDUK-27">
          <mxGeometry y="4" width="48" height="10" as="geometry" />
        </mxCell>
        <mxCell id="UkTgxWB1Igg4LFEnIDUK-29" value="" style="endArrow=none;html=1;rounded=0;" edge="1" parent="UkTgxWB1Igg4LFEnIDUK-27">
          <mxGeometry width="50" height="50" relative="1" as="geometry">
            <mxPoint x="8" y="20" as="sourcePoint" />
            <mxPoint x="18" as="targetPoint" />
          </mxGeometry>
        </mxCell>
        <mxCell id="UkTgxWB1Igg4LFEnIDUK-30" value="" style="group" vertex="1" connectable="0" parent="UkTgxWB1Igg4LFEnIDUK-20">
          <mxGeometry x="75.84" y="82" width="48" height="20" as="geometry" />
        </mxCell>
        <mxCell id="UkTgxWB1Igg4LFEnIDUK-31" value="" style="html=1;shadow=0;dashed=0;align=center;verticalAlign=middle;shape=mxgraph.arrows2.arrow;dy=0.67;dx=24.67;notch=0;movable=1;resizable=1;rotatable=1;deletable=1;editable=1;locked=0;connectable=1;fontStyle=1" vertex="1" parent="UkTgxWB1Igg4LFEnIDUK-30">
          <mxGeometry y="4" width="48" height="10" as="geometry" />
        </mxCell>
        <mxCell id="UkTgxWB1Igg4LFEnIDUK-32" value="" style="endArrow=none;html=1;rounded=0;" edge="1" parent="UkTgxWB1Igg4LFEnIDUK-30">
          <mxGeometry width="50" height="50" relative="1" as="geometry">
            <mxPoint x="8" y="20" as="sourcePoint" />
            <mxPoint x="18" as="targetPoint" />
          </mxGeometry>
        </mxCell>
        <mxCell id="UkTgxWB1Igg4LFEnIDUK-33" value="" style="group" vertex="1" connectable="0" parent="UkTgxWB1Igg4LFEnIDUK-20">
          <mxGeometry x="245.84" y="82" width="48" height="20" as="geometry" />
        </mxCell>
        <mxCell id="UkTgxWB1Igg4LFEnIDUK-34" value="" style="html=1;shadow=0;dashed=0;align=center;verticalAlign=middle;shape=mxgraph.arrows2.arrow;dy=0.67;dx=24.67;notch=0;movable=1;resizable=1;rotatable=1;deletable=1;editable=1;locked=0;connectable=1;fontStyle=1" vertex="1" parent="UkTgxWB1Igg4LFEnIDUK-33">
          <mxGeometry y="4" width="48" height="10" as="geometry" />
        </mxCell>
        <mxCell id="UkTgxWB1Igg4LFEnIDUK-35" value="" style="endArrow=none;html=1;rounded=0;" edge="1" parent="UkTgxWB1Igg4LFEnIDUK-33">
          <mxGeometry width="50" height="50" relative="1" as="geometry">
            <mxPoint x="8" y="20" as="sourcePoint" />
            <mxPoint x="18" as="targetPoint" />
          </mxGeometry>
        </mxCell>
        <mxCell id="UkTgxWB1Igg4LFEnIDUK-36" value="" style="group;rotation=-90;" vertex="1" connectable="0" parent="UkTgxWB1Igg4LFEnIDUK-20">
          <mxGeometry x="163.84" y="216" width="48" height="20" as="geometry" />
        </mxCell>
        <mxCell id="UkTgxWB1Igg4LFEnIDUK-37" value="" style="html=1;shadow=0;dashed=0;align=center;verticalAlign=middle;shape=mxgraph.arrows2.arrow;dy=0.67;dx=24.67;notch=0;movable=1;resizable=1;rotatable=1;deletable=1;editable=1;locked=0;connectable=1;fontStyle=1;rotation=-90;" vertex="1" parent="UkTgxWB1Igg4LFEnIDUK-36">
          <mxGeometry x="-1" y="5" width="48" height="10" as="geometry" />
        </mxCell>
        <mxCell id="UkTgxWB1Igg4LFEnIDUK-38" value="" style="endArrow=none;html=1;rounded=0;" edge="1" parent="UkTgxWB1Igg4LFEnIDUK-36">
          <mxGeometry width="50" height="50" relative="1" as="geometry">
            <mxPoint x="34" y="26" as="sourcePoint" />
            <mxPoint x="14" y="16" as="targetPoint" />
          </mxGeometry>
        </mxCell>
        <mxCell id="UkTgxWB1Igg4LFEnIDUK-39" value="" style="group;rotation=90;" vertex="1" connectable="0" parent="UkTgxWB1Igg4LFEnIDUK-20">
          <mxGeometry x="161.84" y="21" width="48" height="20" as="geometry" />
        </mxCell>
        <mxCell id="UkTgxWB1Igg4LFEnIDUK-40" value="" style="html=1;shadow=0;dashed=0;align=center;verticalAlign=middle;shape=mxgraph.arrows2.arrow;dy=0.67;dx=24.67;notch=0;movable=1;resizable=1;rotatable=1;deletable=1;editable=1;locked=0;connectable=1;fontStyle=1;rotation=90;" vertex="1" parent="UkTgxWB1Igg4LFEnIDUK-39">
          <mxGeometry x="1" y="5" width="48" height="10" as="geometry" />
        </mxCell>
        <mxCell id="UkTgxWB1Igg4LFEnIDUK-41" value="" style="endArrow=none;html=1;rounded=0;" edge="1" parent="UkTgxWB1Igg4LFEnIDUK-39">
          <mxGeometry width="50" height="50" relative="1" as="geometry">
            <mxPoint x="14" y="-6" as="sourcePoint" />
            <mxPoint x="34" y="4" as="targetPoint" />
          </mxGeometry>
        </mxCell>
        <mxCell id="UkTgxWB1Igg4LFEnIDUK-42" value="32" style="text;html=1;align=center;verticalAlign=middle;whiteSpace=wrap;rounded=0;" vertex="1" parent="UkTgxWB1Igg4LFEnIDUK-20">
          <mxGeometry x="233.84" y="61" width="60" height="30" as="geometry" />
        </mxCell>
        <mxCell id="UkTgxWB1Igg4LFEnIDUK-43" value="32" style="text;html=1;align=center;verticalAlign=middle;whiteSpace=wrap;rounded=0;" vertex="1" parent="UkTgxWB1Igg4LFEnIDUK-20">
          <mxGeometry x="63.84" y="121" width="60" height="30" as="geometry" />
        </mxCell>
        <mxCell id="UkTgxWB1Igg4LFEnIDUK-44" value="32" style="text;html=1;align=center;verticalAlign=middle;whiteSpace=wrap;rounded=0;" vertex="1" parent="UkTgxWB1Igg4LFEnIDUK-20">
          <mxGeometry x="63.84" y="62" width="60" height="30" as="geometry" />
        </mxCell>
        <mxCell id="UkTgxWB1Igg4LFEnIDUK-45" value="1" style="text;html=1;align=center;verticalAlign=middle;whiteSpace=wrap;rounded=0;" vertex="1" parent="UkTgxWB1Igg4LFEnIDUK-20">
          <mxGeometry x="142.56" width="60" height="30" as="geometry" />
        </mxCell>
        <mxCell id="UkTgxWB1Igg4LFEnIDUK-46" value="1" style="text;html=1;align=center;verticalAlign=middle;whiteSpace=wrap;rounded=0;" vertex="1" parent="UkTgxWB1Igg4LFEnIDUK-20">
          <mxGeometry x="142.56" y="215" width="60" height="30" as="geometry" />
        </mxCell>
        <mxCell id="UkTgxWB1Igg4LFEnIDUK-47" value="" style="endArrow=none;html=1;rounded=0;entryX=0.203;entryY=1.001;entryDx=0;entryDy=0;entryPerimeter=0;" edge="1" parent="1" target="UkTgxWB1Igg4LFEnIDUK-43">
          <mxGeometry width="50" height="50" relative="1" as="geometry">
            <mxPoint x="270" y="90" as="sourcePoint" />
            <mxPoint x="667" y="76" as="targetPoint" />
            <Array as="points">
              <mxPoint x="270" y="94" />
              <mxPoint x="300" y="94" />
              <mxPoint x="300" y="174" />
              <mxPoint x="655" y="174" />
              <mxPoint x="655" y="82" />
            </Array>
          </mxGeometry>
        </mxCell>
        <mxCell id="UkTgxWB1Igg4LFEnIDUK-48" value="" style="endArrow=none;html=1;rounded=0;entryX=0.194;entryY=0.946;entryDx=0;entryDy=0;entryPerimeter=0;exitX=1;exitY=0.5;exitDx=0;exitDy=0;exitPerimeter=0;" edge="1" parent="1" target="UkTgxWB1Igg4LFEnIDUK-44" source="EhfS3hLfAL1PqbgcSTiK-32">
          <mxGeometry width="50" height="50" relative="1" as="geometry">
            <mxPoint x="621" y="61" as="sourcePoint" />
            <mxPoint x="665.0000000000001" y="-139" as="targetPoint" />
            <Array as="points">
              <mxPoint x="635" y="61" />
              <mxPoint x="635" y="21" />
            </Array>
          </mxGeometry>
        </mxCell>
        <mxCell id="UkTgxWB1Igg4LFEnIDUK-49" value="" style="group" vertex="1" connectable="0" parent="1">
          <mxGeometry x="896" y="10" width="50" height="110" as="geometry" />
        </mxCell>
        <mxCell id="UkTgxWB1Igg4LFEnIDUK-50" value="" style="rounded=1;whiteSpace=wrap;html=1;rotation=-90;" vertex="1" parent="UkTgxWB1Igg4LFEnIDUK-49">
          <mxGeometry x="-8.649999999999997" y="25.78125" width="66.66666666666667" height="24.0625" as="geometry" />
        </mxCell>
        <mxCell id="UkTgxWB1Igg4LFEnIDUK-51" value="&lt;font style=&quot;font-size: 10px;&quot;&gt;&lt;font style=&quot;&quot;&gt;M&lt;/font&gt;&lt;/font&gt;&lt;font style=&quot;background-color: initial; font-size: 10px;&quot;&gt;&lt;span style=&quot;background-color: initial;&quot;&gt;U&lt;/span&gt;&lt;/font&gt;&lt;span style=&quot;background-color: initial; font-size: 10px;&quot;&gt;X&lt;/span&gt;" style="text;html=1;align=center;verticalAlign=middle;whiteSpace=wrap;rounded=0;fontStyle=0" vertex="1" parent="UkTgxWB1Igg4LFEnIDUK-49">
          <mxGeometry x="11.21666666666665" y="25.78125" width="27.566666666666666" height="25.78125" as="geometry" />
        </mxCell>
        <mxCell id="UkTgxWB1Igg4LFEnIDUK-52" value="" style="endArrow=classic;html=1;rounded=0;entryX=0;entryY=0.5;entryDx=0;entryDy=0;" edge="1" parent="UkTgxWB1Igg4LFEnIDUK-49" target="UkTgxWB1Igg4LFEnIDUK-50">
          <mxGeometry width="50" height="50" relative="1" as="geometry">
            <mxPoint x="24.683333333333337" y="92.8125" as="sourcePoint" />
            <mxPoint x="33.01666666666667" y="101.40625" as="targetPoint" />
          </mxGeometry>
        </mxCell>
        <mxCell id="UkTgxWB1Igg4LFEnIDUK-53" value="MemtoReg" style="text;html=1;align=center;verticalAlign=middle;whiteSpace=wrap;rounded=0;" vertex="1" parent="UkTgxWB1Igg4LFEnIDUK-49">
          <mxGeometry y="84.21875" width="50" height="25.78125" as="geometry" />
        </mxCell>
        <mxCell id="UkTgxWB1Igg4LFEnIDUK-54" value="&lt;b&gt;1&lt;/b&gt;" style="text;html=1;align=center;verticalAlign=middle;whiteSpace=wrap;rounded=0;" vertex="1" parent="UkTgxWB1Igg4LFEnIDUK-49">
          <mxGeometry width="50" height="25.78125" as="geometry" />
        </mxCell>
        <mxCell id="UkTgxWB1Igg4LFEnIDUK-55" value="&lt;b&gt;0&lt;/b&gt;" style="text;html=1;align=center;verticalAlign=middle;whiteSpace=wrap;rounded=0;" vertex="1" parent="UkTgxWB1Igg4LFEnIDUK-49">
          <mxGeometry y="51.56" width="50" height="25.78" as="geometry" />
        </mxCell>
        <mxCell id="UkTgxWB1Igg4LFEnIDUK-56" value="" style="endArrow=classic;html=1;rounded=0;entryX=0.24;entryY=0.465;entryDx=0;entryDy=0;entryPerimeter=0;" edge="1" parent="1">
          <mxGeometry width="50" height="50" relative="1" as="geometry">
            <mxPoint x="300" y="94" as="sourcePoint" />
            <mxPoint x="349" y="84" as="targetPoint" />
            <Array as="points">
              <mxPoint x="300" y="84" />
            </Array>
          </mxGeometry>
        </mxCell>
        <mxCell id="UkTgxWB1Igg4LFEnIDUK-57" value="" style="endArrow=classic;html=1;rounded=0;" edge="1" parent="1">
          <mxGeometry width="50" height="50" relative="1" as="geometry">
            <mxPoint x="290" y="180" as="sourcePoint" />
            <mxPoint x="349" y="134" as="targetPoint" />
            <Array as="points">
              <mxPoint x="290" y="134" />
            </Array>
          </mxGeometry>
        </mxCell>
        <mxCell id="UkTgxWB1Igg4LFEnIDUK-58" value="" style="endArrow=classic;html=1;rounded=0;entryX=0.2;entryY=0.465;entryDx=0;entryDy=0;entryPerimeter=0;exitX=1;exitY=1;exitDx=0;exitDy=0;" edge="1" parent="1" source="UkTgxWB1Igg4LFEnIDUK-42" target="UkTgxWB1Igg4LFEnIDUK-54">
          <mxGeometry width="50" height="50" relative="1" as="geometry">
            <mxPoint x="855" y="94" as="sourcePoint" />
            <mxPoint x="905" y="44" as="targetPoint" />
          </mxGeometry>
        </mxCell>
        <mxCell id="UkTgxWB1Igg4LFEnIDUK-59" value="" style="endArrow=classic;html=1;rounded=0;entryX=0.2;entryY=0.482;entryDx=0;entryDy=0;entryPerimeter=0;" edge="1" parent="1" target="UkTgxWB1Igg4LFEnIDUK-55">
          <mxGeometry width="50" height="50" relative="1" as="geometry">
            <mxPoint x="635" y="54" as="sourcePoint" />
            <mxPoint x="715" y="54" as="targetPoint" />
            <Array as="points">
              <mxPoint x="635" y="184" />
              <mxPoint x="865" y="184" />
              <mxPoint x="865" y="74" />
            </Array>
          </mxGeometry>
        </mxCell>
        <mxCell id="UkTgxWB1Igg4LFEnIDUK-60" value="" style="group" vertex="1" connectable="0" parent="1">
          <mxGeometry x="358" y="70" width="50" height="110" as="geometry" />
        </mxCell>
        <mxCell id="UkTgxWB1Igg4LFEnIDUK-61" value="" style="rounded=1;whiteSpace=wrap;html=1;rotation=-90;" vertex="1" parent="UkTgxWB1Igg4LFEnIDUK-60">
          <mxGeometry x="-30.65" y="25.78125" width="66.66666666666667" height="24.0625" as="geometry" />
        </mxCell>
        <mxCell id="UkTgxWB1Igg4LFEnIDUK-62" value="&lt;font style=&quot;font-size: 10px;&quot;&gt;&lt;font style=&quot;&quot;&gt;M&lt;/font&gt;&lt;/font&gt;&lt;font style=&quot;background-color: initial; font-size: 10px;&quot;&gt;&lt;span style=&quot;background-color: initial;&quot;&gt;U&lt;/span&gt;&lt;/font&gt;&lt;span style=&quot;background-color: initial; font-size: 10px;&quot;&gt;X&lt;/span&gt;" style="text;html=1;align=center;verticalAlign=middle;whiteSpace=wrap;rounded=0;fontStyle=0" vertex="1" parent="UkTgxWB1Igg4LFEnIDUK-60">
          <mxGeometry x="-10.78333333333335" y="25.78125" width="27.566666666666666" height="25.78125" as="geometry" />
        </mxCell>
        <mxCell id="UkTgxWB1Igg4LFEnIDUK-63" value="" style="endArrow=classic;html=1;rounded=0;entryX=0;entryY=0.5;entryDx=0;entryDy=0;" edge="1" parent="UkTgxWB1Igg4LFEnIDUK-60" target="UkTgxWB1Igg4LFEnIDUK-61">
          <mxGeometry width="50" height="50" relative="1" as="geometry">
            <mxPoint x="2.683333333333337" y="92.8125" as="sourcePoint" />
            <mxPoint x="11.016666666666673" y="101.40625" as="targetPoint" />
          </mxGeometry>
        </mxCell>
        <mxCell id="UkTgxWB1Igg4LFEnIDUK-64" value="ALUSrc" style="text;html=1;align=center;verticalAlign=middle;whiteSpace=wrap;rounded=0;" vertex="1" parent="UkTgxWB1Igg4LFEnIDUK-60">
          <mxGeometry x="24" y="76.21875" width="50" height="25.78125" as="geometry" />
        </mxCell>
        <mxCell id="UkTgxWB1Igg4LFEnIDUK-65" value="&lt;b&gt;1&lt;/b&gt;" style="text;html=1;align=center;verticalAlign=middle;whiteSpace=wrap;rounded=0;" vertex="1" parent="UkTgxWB1Igg4LFEnIDUK-60">
          <mxGeometry x="-22" width="50" height="25.78125" as="geometry" />
        </mxCell>
        <mxCell id="UkTgxWB1Igg4LFEnIDUK-66" value="&lt;b&gt;0&lt;/b&gt;" style="text;html=1;align=center;verticalAlign=middle;whiteSpace=wrap;rounded=0;" vertex="1" parent="UkTgxWB1Igg4LFEnIDUK-60">
          <mxGeometry x="-22" y="50.5625" width="50" height="25.78125" as="geometry" />
        </mxCell>
        <mxCell id="UkTgxWB1Igg4LFEnIDUK-67" value="" style="endArrow=none;html=1;rounded=0;exitX=0.936;exitY=0.675;exitDx=0;exitDy=0;exitPerimeter=0;entryX=0;entryY=0.5;entryDx=0;entryDy=0;entryPerimeter=0;" edge="1" parent="1" source="UkTgxWB1Igg4LFEnIDUK-62" target="EhfS3hLfAL1PqbgcSTiK-31">
          <mxGeometry width="50" height="50" relative="1" as="geometry">
            <mxPoint x="515" y="172" as="sourcePoint" />
            <mxPoint x="441" y="111" as="targetPoint" />
            <Array as="points" />
          </mxGeometry>
        </mxCell>
        <mxCell id="UkTgxWB1Igg4LFEnIDUK-84" value="" style="endArrow=none;html=1;rounded=0;entryX=1;entryY=0.5;entryDx=0;entryDy=0;exitX=0.186;exitY=0.968;exitDx=0;exitDy=0;exitPerimeter=0;" edge="1" parent="1" source="EhfS3hLfAL1PqbgcSTiK-83">
          <mxGeometry width="50" height="50" relative="1" as="geometry">
            <mxPoint x="50" y="140" as="sourcePoint" />
            <mxPoint x="933" y="51" as="targetPoint" />
            <Array as="points">
              <mxPoint x="30" y="103" />
              <mxPoint x="30" y="230" />
              <mxPoint x="643" y="230" />
              <mxPoint x="953" y="230" />
              <mxPoint x="953" y="51" />
            </Array>
          </mxGeometry>
        </mxCell>
      </root>
    </mxGraphModel>
  </diagram>
</mxfile>
